<?xml version="1.0" encoding="UTF-8" standalone="no"?>
<!DOCTYPE svg PUBLIC "-//W3C//DTD SVG 1.1//EN"
 "http://www.w3.org/Graphics/SVG/1.1/DTD/svg11.dtd">
<!-- Generated by graphviz version 2.38.0 (20140413.2041)
 -->
<!-- Title: Entire Codebase Pages: 1 -->
<svg width="3178pt" height="541pt"
 viewBox="0.00 0.00 3178.08 540.87" xmlns="http://www.w3.org/2000/svg" xmlns:xlink="http://www.w3.org/1999/xlink">
<g id="graph0" class="graph" transform="scale(1 1) rotate(0) translate(4 536.872)">
<title>Entire Codebase</title>
<polygon fill="white" stroke="none" points="-4,4 -4,-536.872 3174.08,-536.872 3174.08,4 -4,4"/>
<g id="clust1" class="cluster"><title>cluster_Class_Binary</title>
<path fill="#ffc1c1" stroke="black" d="M2276.69,-258.291C2276.69,-258.291 3071.69,-258.291 3071.69,-258.291 3077.69,-258.291 3083.69,-264.291 3083.69,-270.291 3083.69,-270.291 3083.69,-470.872 3083.69,-470.872 3083.69,-476.872 3077.69,-482.872 3071.69,-482.872 3071.69,-482.872 2276.69,-482.872 2276.69,-482.872 2270.69,-482.872 2264.69,-476.872 2264.69,-470.872 2264.69,-470.872 2264.69,-270.291 2264.69,-270.291 2264.69,-264.291 2270.69,-258.291 2276.69,-258.291"/>
<text text-anchor="middle" x="2674.19" y="-467.672" font-family="Times,serif" font-size="14.00">Class: Binary</text>
</g>
<g id="clust2" class="cluster"><title>cluster_Class_Binary_Data_HeartBeat</title>
<path fill="#c6e2ff" stroke="black" d="M2284.69,-266.291C2284.69,-266.291 3063.69,-266.291 3063.69,-266.291 3069.69,-266.291 3075.69,-272.291 3075.69,-278.291 3075.69,-278.291 3075.69,-356.582 3075.69,-356.582 3075.69,-362.582 3069.69,-368.582 3063.69,-368.582 3063.69,-368.582 2284.69,-368.582 2284.69,-368.582 2278.69,-368.582 2272.69,-362.582 2272.69,-356.582 2272.69,-356.582 2272.69,-278.291 2272.69,-278.291 2272.69,-272.291 2278.69,-266.291 2284.69,-266.291"/>
<text text-anchor="middle" x="2674.19" y="-353.382" font-family="Times,serif" font-size="14.00">Instance for: HeartBeat</text>
</g>
<g id="clust3" class="cluster"><title>cluster_Class_MAVLinkMessage</title>
<path fill="#ffc1c1" stroke="black" d="M564.691,-140C564.691,-140 1511.69,-140 1511.69,-140 1517.69,-140 1523.69,-146 1523.69,-152 1523.69,-152 1523.69,-360.582 1523.69,-360.582 1523.69,-366.582 1517.69,-372.582 1511.69,-372.582 1511.69,-372.582 564.691,-372.582 564.691,-372.582 558.691,-372.582 552.691,-366.582 552.691,-360.582 552.691,-360.582 552.691,-152 552.691,-152 552.691,-146 558.691,-140 564.691,-140"/>
<text text-anchor="middle" x="1038.19" y="-357.382" font-family="Times,serif" font-size="14.00">Class: MAVLinkMessage</text>
</g>
<g id="clust4" class="cluster"><title>cluster_Class_MAVLinkMessage_Data_HeartBeat</title>
<path fill="#c6e2ff" stroke="black" d="M648.691,-148C648.691,-148 1427.69,-148 1427.69,-148 1433.69,-148 1439.69,-154 1439.69,-160 1439.69,-160 1439.69,-238.291 1439.69,-238.291 1439.69,-244.291 1433.69,-250.291 1427.69,-250.291 1427.69,-250.291 648.691,-250.291 648.691,-250.291 642.691,-250.291 636.691,-244.291 636.691,-238.291 636.691,-238.291 636.691,-160 636.691,-160 636.691,-154 642.691,-148 648.691,-148"/>
<text text-anchor="middle" x="1038.19" y="-235.091" font-family="Times,serif" font-size="14.00">Instance for: HeartBeat</text>
</g>
<g id="clust5" class="cluster"><title>cluster_Data_HeartBeat</title>
<path fill="papayawhip" stroke="black" d="M1543.69,-70C1543.69,-70 3132.69,-70 3132.69,-70 3138.69,-70 3144.69,-76 3144.69,-82 3144.69,-82 3144.69,-227.145 3144.69,-227.145 3144.69,-233.145 3138.69,-239.145 3132.69,-239.145 3132.69,-239.145 1543.69,-239.145 1543.69,-239.145 1537.69,-239.145 1531.69,-233.145 1531.69,-227.145 1531.69,-227.145 1531.69,-82 1531.69,-82 1531.69,-76 1537.69,-70 1543.69,-70"/>
<text text-anchor="middle" x="2338.19" y="-223.945" font-family="Times,serif" font-size="14.00">Data: HeartBeat</text>
</g>
<!-- 13 -->
<g id="node1" class="node"><title>13</title>
<polygon fill="bisque" stroke="black" points="3067.99,-293.061 3067.99,-319.812 2955.34,-338.728 2796.04,-338.728 2683.39,-319.812 2683.39,-293.061 2796.04,-274.145 2955.34,-274.145 3067.99,-293.061"/>
<text text-anchor="middle" x="2875.69" y="-309.236" font-family="Times,serif" font-size="14.00">MAVLinkHS.Messages.HeartBeat</text>
<text text-anchor="middle" x="2875.69" y="-295.236" font-family="Times,serif" font-size="14.00">get</text>
</g>
<!-- 8 -->
<g id="node9" class="node"><title>8</title>
<polygon fill="goldenrod" stroke="black" points="2463.57,-120 2215.81,-120 2211.81,-116 2211.81,-78 2459.57,-78 2463.57,-82 2463.57,-120"/>
<polyline fill="none" stroke="black" points="2459.57,-116 2211.81,-116 "/>
<polyline fill="none" stroke="black" points="2459.57,-116 2459.57,-78 "/>
<polyline fill="none" stroke="black" points="2459.57,-116 2463.57,-120 "/>
<text text-anchor="middle" x="2337.69" y="-101.8" font-family="Times,serif" font-size="14.00">MAVLinkHS.Messages.HeartBeat</text>
<text text-anchor="middle" x="2337.69" y="-87.8" font-family="Times,serif" font-size="14.00">HeartBeat</text>
</g>
<!-- 13&#45;&gt;8 -->
<g id="edge10" class="edge"><title>13&#45;&gt;8</title>
<path fill="none" stroke="black" d="M3042.52,-288.715C3089.13,-280.409 3131.09,-268.173 3145.69,-250.291 3176.69,-212.32 3179.48,-175.508 3145.69,-140 3122.94,-116.093 2697.91,-105.728 2473.67,-101.908"/>
<polygon fill="black" stroke="black" points="2473.53,-98.4049 2463.47,-101.736 2473.41,-105.404 2473.53,-98.4049"/>
</g>
<!-- 17 -->
<g id="node2" class="node"><title>17</title>
<polygon fill="bisque" stroke="black" points="2664.99,-293.061 2664.99,-319.812 2552.34,-338.728 2393.04,-338.728 2280.39,-319.812 2280.39,-293.061 2393.04,-274.145 2552.34,-274.145 2664.99,-293.061"/>
<text text-anchor="middle" x="2472.69" y="-309.236" font-family="Times,serif" font-size="14.00">MAVLinkHS.Messages.HeartBeat</text>
<text text-anchor="middle" x="2472.69" y="-295.236" font-family="Times,serif" font-size="14.00">put</text>
</g>
<!-- 9 -->
<g id="node10" class="node"><title>9</title>
<polygon fill="goldenrod" stroke="black" points="3136.57,-209.145 2884.81,-209.145 2884.81,-205.145 2880.81,-205.145 2880.81,-201.145 2884.81,-201.145 2884.81,-175.145 2880.81,-175.145 2880.81,-171.145 2884.81,-171.145 2884.81,-167.145 3136.57,-167.145 3136.57,-209.145"/>
<polyline fill="none" stroke="black" points="2884.81,-205.145 2888.81,-205.145 2888.81,-201.145 2884.81,-201.145 "/>
<polyline fill="none" stroke="black" points="2884.81,-175.145 2888.81,-175.145 2888.81,-171.145 2884.81,-171.145 "/>
<text text-anchor="middle" x="3010.69" y="-190.945" font-family="Times,serif" font-size="14.00">MAVLinkHS.Messages.HeartBeat</text>
<text text-anchor="middle" x="3010.69" y="-176.945" font-family="Times,serif" font-size="14.00">autopilot</text>
</g>
<!-- 17&#45;&gt;9 -->
<g id="edge11" class="edge"><title>17&#45;&gt;9</title>
<path fill="none" stroke="black" d="M2574.24,-277.772C2606.15,-270.149 2641.68,-262.756 2674.69,-258.291 2719.21,-252.27 2832.99,-260.7 2876.69,-250.291 2908.48,-242.718 2941.93,-227.467 2967.45,-214.091"/>
<polygon fill="black" stroke="black" points="2969.31,-217.067 2976.48,-209.266 2966.01,-210.893 2969.31,-217.067"/>
</g>
<!-- 10 -->
<g id="node11" class="node"><title>10</title>
<polygon fill="goldenrod" stroke="black" points="2867.57,-209.145 2615.81,-209.145 2615.81,-205.145 2611.81,-205.145 2611.81,-201.145 2615.81,-201.145 2615.81,-175.145 2611.81,-175.145 2611.81,-171.145 2615.81,-171.145 2615.81,-167.145 2867.57,-167.145 2867.57,-209.145"/>
<polyline fill="none" stroke="black" points="2615.81,-205.145 2619.81,-205.145 2619.81,-201.145 2615.81,-201.145 "/>
<polyline fill="none" stroke="black" points="2615.81,-175.145 2619.81,-175.145 2619.81,-171.145 2615.81,-171.145 "/>
<text text-anchor="middle" x="2741.69" y="-190.945" font-family="Times,serif" font-size="14.00">MAVLinkHS.Messages.HeartBeat</text>
<text text-anchor="middle" x="2741.69" y="-176.945" font-family="Times,serif" font-size="14.00">basemode</text>
</g>
<!-- 17&#45;&gt;10 -->
<g id="edge12" class="edge"><title>17&#45;&gt;10</title>
<path fill="none" stroke="black" d="M2550.73,-274.184C2569.45,-266.515 2589.33,-258.226 2607.69,-250.291 2634.85,-238.552 2664.84,-224.932 2689.55,-213.53"/>
<polygon fill="black" stroke="black" points="2691.13,-216.652 2698.74,-209.277 2688.19,-210.299 2691.13,-216.652"/>
</g>
<!-- 12 -->
<g id="node12" class="node"><title>12</title>
<polygon fill="goldenrod" stroke="black" points="2598.57,-209.145 2346.81,-209.145 2346.81,-205.145 2342.81,-205.145 2342.81,-201.145 2346.81,-201.145 2346.81,-175.145 2342.81,-175.145 2342.81,-171.145 2346.81,-171.145 2346.81,-167.145 2598.57,-167.145 2598.57,-209.145"/>
<polyline fill="none" stroke="black" points="2346.81,-205.145 2350.81,-205.145 2350.81,-201.145 2346.81,-201.145 "/>
<polyline fill="none" stroke="black" points="2346.81,-175.145 2350.81,-175.145 2350.81,-171.145 2346.81,-171.145 "/>
<text text-anchor="middle" x="2472.69" y="-190.945" font-family="Times,serif" font-size="14.00">MAVLinkHS.Messages.HeartBeat</text>
<text text-anchor="middle" x="2472.69" y="-176.945" font-family="Times,serif" font-size="14.00">custommode</text>
</g>
<!-- 17&#45;&gt;12 -->
<g id="edge13" class="edge"><title>17&#45;&gt;12</title>
<path fill="none" stroke="black" d="M2472.69,-274.272C2472.69,-257.384 2472.69,-236.594 2472.69,-219.788"/>
<polygon fill="black" stroke="black" points="2476.19,-219.4 2472.69,-209.4 2469.19,-219.4 2476.19,-219.4"/>
</g>
<!-- 18 -->
<g id="node13" class="node"><title>18</title>
<polygon fill="goldenrod" stroke="black" points="2329.57,-209.145 2077.81,-209.145 2077.81,-205.145 2073.81,-205.145 2073.81,-201.145 2077.81,-201.145 2077.81,-175.145 2073.81,-175.145 2073.81,-171.145 2077.81,-171.145 2077.81,-167.145 2329.57,-167.145 2329.57,-209.145"/>
<polyline fill="none" stroke="black" points="2077.81,-205.145 2081.81,-205.145 2081.81,-201.145 2077.81,-201.145 "/>
<polyline fill="none" stroke="black" points="2077.81,-175.145 2081.81,-175.145 2081.81,-171.145 2077.81,-171.145 "/>
<text text-anchor="middle" x="2203.69" y="-190.945" font-family="Times,serif" font-size="14.00">MAVLinkHS.Messages.HeartBeat</text>
<text text-anchor="middle" x="2203.69" y="-176.945" font-family="Times,serif" font-size="14.00">systemstatus</text>
</g>
<!-- 17&#45;&gt;18 -->
<g id="edge14" class="edge"><title>17&#45;&gt;18</title>
<path fill="none" stroke="black" d="M2394.65,-274.184C2375.93,-266.515 2356.05,-258.226 2337.69,-250.291 2310.53,-238.552 2280.54,-224.932 2255.84,-213.53"/>
<polygon fill="black" stroke="black" points="2257.19,-210.299 2246.64,-209.277 2254.25,-216.652 2257.19,-210.299"/>
</g>
<!-- 19 -->
<g id="node14" class="node"><title>19</title>
<polygon fill="goldenrod" stroke="black" points="2060.57,-209.145 1808.81,-209.145 1808.81,-205.145 1804.81,-205.145 1804.81,-201.145 1808.81,-201.145 1808.81,-175.145 1804.81,-175.145 1804.81,-171.145 1808.81,-171.145 1808.81,-167.145 2060.57,-167.145 2060.57,-209.145"/>
<polyline fill="none" stroke="black" points="1808.81,-205.145 1812.81,-205.145 1812.81,-201.145 1808.81,-201.145 "/>
<polyline fill="none" stroke="black" points="1808.81,-175.145 1812.81,-175.145 1812.81,-171.145 1808.81,-171.145 "/>
<text text-anchor="middle" x="1934.69" y="-190.945" font-family="Times,serif" font-size="14.00">MAVLinkHS.Messages.HeartBeat</text>
<text text-anchor="middle" x="1934.69" y="-176.945" font-family="Times,serif" font-size="14.00">typet</text>
</g>
<!-- 17&#45;&gt;19 -->
<g id="edge15" class="edge"><title>17&#45;&gt;19</title>
<path fill="none" stroke="black" d="M2288.07,-291.71C2218.38,-283.554 2138.98,-270.646 2068.69,-250.291 2037.96,-241.39 2005.25,-226.582 1979.85,-213.767"/>
<polygon fill="black" stroke="black" points="1981.33,-210.595 1970.83,-209.151 1978.14,-216.825 1981.33,-210.595"/>
</g>
<!-- 20 -->
<g id="node15" class="node"><title>20</title>
<polygon fill="goldenrod" stroke="black" points="1791.57,-209.145 1539.81,-209.145 1539.81,-205.145 1535.81,-205.145 1535.81,-201.145 1539.81,-201.145 1539.81,-175.145 1535.81,-175.145 1535.81,-171.145 1539.81,-171.145 1539.81,-167.145 1791.57,-167.145 1791.57,-209.145"/>
<polyline fill="none" stroke="black" points="1539.81,-205.145 1543.81,-205.145 1543.81,-201.145 1539.81,-201.145 "/>
<polyline fill="none" stroke="black" points="1539.81,-175.145 1543.81,-175.145 1543.81,-171.145 1539.81,-171.145 "/>
<text text-anchor="middle" x="1665.69" y="-190.945" font-family="Times,serif" font-size="14.00">MAVLinkHS.Messages.HeartBeat</text>
<text text-anchor="middle" x="1665.69" y="-176.945" font-family="Times,serif" font-size="14.00">version</text>
</g>
<!-- 17&#45;&gt;20 -->
<g id="edge16" class="edge"><title>17&#45;&gt;20</title>
<path fill="none" stroke="black" d="M2280.12,-297.053C2113.94,-288.461 1887.25,-273.109 1799.69,-250.291 1768.4,-242.136 1735.32,-227.115 1709.86,-214.003"/>
<polygon fill="black" stroke="black" points="1711.32,-210.818 1700.84,-209.275 1708.07,-217.018 1711.32,-210.818"/>
</g>
<!-- 28 -->
<g id="node3" class="node"><title>28</title>
<polygon fill="khaki" stroke="black" stroke-dasharray="1,5" points="2998.52,-403.358 2998.52,-430.096 2926.57,-449.002 2824.81,-449.002 2752.86,-430.096 2752.86,-403.358 2824.81,-384.452 2926.57,-384.452 2998.52,-403.358"/>
<polygon fill="none" stroke="black" stroke-dasharray="1,5" points="3002.53,-400.259 3002.53,-433.195 2927.08,-453.018 2824.3,-453.018 2748.86,-433.195 2748.86,-400.259 2824.3,-380.436 2927.08,-380.436 3002.53,-400.259"/>
<text text-anchor="middle" x="2875.69" y="-419.527" font-family="Times,serif" font-size="14.00">Unknown Module</text>
<text text-anchor="middle" x="2875.69" y="-405.527" font-family="Times,serif" font-size="14.00">get</text>
</g>
<!-- 28&#45;&gt;13 -->
<g id="edge35" class="edge"><title>28&#45;&gt;13</title>
<path fill="none" stroke="navy" d="M2875.69,-380.568C2875.69,-367.105 2875.69,-351.848 2875.69,-338.766"/>
</g>
<!-- 29 -->
<g id="node4" class="node"><title>29</title>
<polygon fill="khaki" stroke="black" stroke-dasharray="1,5" points="2595.52,-403.358 2595.52,-430.096 2523.57,-449.002 2421.81,-449.002 2349.86,-430.096 2349.86,-403.358 2421.81,-384.452 2523.57,-384.452 2595.52,-403.358"/>
<polygon fill="none" stroke="black" stroke-dasharray="1,5" points="2599.53,-400.259 2599.53,-433.195 2524.08,-453.018 2421.3,-453.018 2345.86,-433.195 2345.86,-400.259 2421.3,-380.436 2524.08,-380.436 2599.53,-400.259"/>
<text text-anchor="middle" x="2472.69" y="-419.527" font-family="Times,serif" font-size="14.00">Unknown Module</text>
<text text-anchor="middle" x="2472.69" y="-405.527" font-family="Times,serif" font-size="14.00">put</text>
</g>
<!-- 29&#45;&gt;17 -->
<g id="edge36" class="edge"><title>29&#45;&gt;17</title>
<path fill="none" stroke="navy" d="M2472.69,-380.568C2472.69,-367.105 2472.69,-351.848 2472.69,-338.766"/>
</g>
<!-- 11 -->
<g id="node5" class="node"><title>11</title>
<polygon fill="cyan" stroke="black" points="1431.99,-174.77 1431.99,-201.521 1319.34,-220.437 1160.04,-220.437 1047.39,-201.521 1047.39,-174.77 1160.04,-155.854 1319.34,-155.854 1431.99,-174.77"/>
<text text-anchor="middle" x="1239.69" y="-190.945" font-family="Times,serif" font-size="14.00">MAVLinkHS.Messages.HeartBeat</text>
<text text-anchor="middle" x="1239.69" y="-176.945" font-family="Times,serif" font-size="14.00">crcExtra</text>
</g>
<!-- 16 -->
<g id="node6" class="node"><title>16</title>
<polygon fill="cyan" stroke="black" points="1028.99,-174.77 1028.99,-201.521 916.344,-220.437 757.038,-220.437 644.392,-201.521 644.392,-174.77 757.038,-155.854 916.344,-155.854 1028.99,-174.77"/>
<text text-anchor="middle" x="836.691" y="-190.945" font-family="Times,serif" font-size="14.00">MAVLinkHS.Messages.HeartBeat</text>
<text text-anchor="middle" x="836.691" y="-176.945" font-family="Times,serif" font-size="14.00">length</text>
</g>
<!-- 21 -->
<g id="node7" class="node"><title>21</title>
<polygon fill="goldenrod" stroke="black" points="1511.84,-293.067 1511.84,-319.805 1377.02,-338.711 1186.36,-338.711 1051.55,-319.805 1051.55,-293.067 1186.36,-274.161 1377.02,-274.161 1511.84,-293.067"/>
<polygon fill="none" stroke="black" points="1515.83,-289.573 1515.83,-323.3 1377.3,-342.728 1186.08,-342.728 1047.55,-323.3 1047.55,-289.573 1186.08,-270.145 1377.3,-270.145 1515.83,-289.573"/>
<text text-anchor="middle" x="1281.69" y="-309.236" font-family="Times,serif" font-size="14.00">MAVLinkHS.Messages.MAVLinkMessage</text>
<text text-anchor="middle" x="1281.69" y="-295.236" font-family="Times,serif" font-size="14.00">crcExtra</text>
</g>
<!-- 21&#45;&gt;11 -->
<g id="edge20" class="edge"><title>21&#45;&gt;11</title>
<path fill="none" stroke="navy" d="M1268.98,-270.23C1263.28,-254.453 1256.61,-235.993 1251.08,-220.675"/>
</g>
<!-- 22 -->
<g id="node8" class="node"><title>22</title>
<polygon fill="gold" stroke="black" points="1024.84,-293.067 1024.84,-319.805 890.02,-338.711 699.362,-338.711 564.546,-319.805 564.546,-293.067 699.362,-274.161 890.02,-274.161 1024.84,-293.067"/>
<polygon fill="none" stroke="black" points="1028.83,-289.573 1028.83,-323.3 890.298,-342.728 699.084,-342.728 560.549,-323.3 560.549,-289.573 699.084,-270.145 890.298,-270.145 1028.83,-289.573"/>
<text text-anchor="middle" x="794.691" y="-309.236" font-family="Times,serif" font-size="14.00">MAVLinkHS.Messages.MAVLinkMessage</text>
<text text-anchor="middle" x="794.691" y="-295.236" font-family="Times,serif" font-size="14.00">length</text>
</g>
<!-- 22&#45;&gt;16 -->
<g id="edge21" class="edge"><title>22&#45;&gt;16</title>
<path fill="none" stroke="navy" d="M807.406,-270.23C813.104,-254.453 819.771,-235.993 825.303,-220.675"/>
</g>
<!-- 9&#45;&gt;8 -->
<g id="edge7" class="edge"><title>9&#45;&gt;8</title>
<path fill="none" stroke="magenta" d="M2963.5,-167.1C2938.22,-157.246 2906.26,-146.185 2876.69,-140 2741.42,-111.707 2583.4,-102.729 2473.58,-100.206"/>
<polygon fill="magenta" stroke="magenta" points="2463.43,-99.9887 2473.53,-95.7045 2468.43,-100.096 2473.43,-100.203 2473.43,-100.203 2473.43,-100.203 2468.43,-100.096 2473.33,-104.702 2463.43,-99.9887 2463.43,-99.9887"/>
</g>
<!-- 10&#45;&gt;8 -->
<g id="edge8" class="edge"><title>10&#45;&gt;8</title>
<path fill="none" stroke="magenta" d="M2691.8,-167.031C2666.88,-157.646 2636.06,-147.023 2607.69,-140 2564.59,-129.33 2516.87,-121.111 2473.68,-114.98"/>
<polygon fill="magenta" stroke="magenta" points="2463.68,-113.585 2474.2,-110.509 2468.63,-114.276 2473.58,-114.966 2473.58,-114.966 2473.58,-114.966 2468.63,-114.276 2472.96,-119.423 2463.68,-113.585 2463.68,-113.585"/>
</g>
<!-- 12&#45;&gt;8 -->
<g id="edge9" class="edge"><title>12&#45;&gt;8</title>
<path fill="none" stroke="magenta" d="M2441.38,-166.933C2422.3,-154.615 2397.73,-138.759 2377.31,-125.572"/>
<polygon fill="magenta" stroke="magenta" points="2368.83,-120.102 2379.67,-121.745 2373.03,-122.814 2377.23,-125.526 2377.23,-125.526 2377.23,-125.526 2373.03,-122.814 2374.79,-129.307 2368.83,-120.102 2368.83,-120.102"/>
</g>
<!-- 18&#45;&gt;8 -->
<g id="edge17" class="edge"><title>18&#45;&gt;8</title>
<path fill="none" stroke="magenta" d="M2234.77,-166.933C2253.71,-154.615 2278.09,-138.759 2298.37,-125.572"/>
<polygon fill="magenta" stroke="magenta" points="2306.78,-120.102 2300.85,-129.327 2302.59,-122.828 2298.4,-125.554 2298.4,-125.554 2298.4,-125.554 2302.59,-122.828 2295.94,-121.782 2306.78,-120.102 2306.78,-120.102"/>
</g>
<!-- 19&#45;&gt;8 -->
<g id="edge18" class="edge"><title>19&#45;&gt;8</title>
<path fill="none" stroke="magenta" d="M1984.59,-167.038C2009.51,-157.654 2040.33,-147.031 2068.69,-140 2111.53,-129.383 2158.94,-121.186 2201.88,-115.058"/>
<polygon fill="magenta" stroke="magenta" points="2211.83,-113.664 2202.55,-119.508 2206.88,-114.358 2201.93,-115.052 2201.93,-115.052 2201.93,-115.052 2206.88,-114.358 2201.3,-110.596 2211.83,-113.664 2211.83,-113.664"/>
</g>
<!-- 20&#45;&gt;8 -->
<g id="edge19" class="edge"><title>20&#45;&gt;8</title>
<path fill="none" stroke="magenta" d="M1712.88,-167.102C1738.17,-157.248 1770.12,-146.187 1799.69,-140 1934.6,-111.773 2092.18,-102.78 2201.79,-100.236"/>
<polygon fill="magenta" stroke="magenta" points="2211.91,-100.016 2202.01,-104.732 2206.91,-100.125 2201.91,-100.233 2201.91,-100.233 2201.91,-100.233 2206.91,-100.125 2201.82,-95.7344 2211.91,-100.016 2211.91,-100.016"/>
</g>
<!-- 1 -->
<g id="node16" class="node"><title>1</title>
<polygon fill="bisque" stroke="black" points="433.907,-120 269.475,-120 269.475,-78 433.907,-78 433.907,-120"/>
<text text-anchor="middle" x="351.691" y="-101.8" font-family="Times,serif" font-size="14.00">MAVLinkHS.CRC</text>
<text text-anchor="middle" x="351.691" y="-87.8" font-family="Times,serif" font-size="14.00">crcAccumulate</text>
</g>
<!-- 7 -->
<g id="node22" class="node"><title>7</title>
<polygon fill="cyan" stroke="black" points="433.907,-42 269.475,-42 269.475,-0 433.907,-0 433.907,-42"/>
<text text-anchor="middle" x="351.691" y="-23.8" font-family="Times,serif" font-size="14.00">MAVLinkHS.CRC</text>
<text text-anchor="middle" x="351.691" y="-9.8" font-family="Times,serif" font-size="14.00">toWord8</text>
</g>
<!-- 1&#45;&gt;7 -->
<g id="edge1" class="edge"><title>1&#45;&gt;7</title>
<path fill="none" stroke="chartreuse" d="M351.691,-77.6334C351.691,-69.8186 351.691,-60.7253 351.691,-52.183"/>
<polygon fill="chartreuse" stroke="chartreuse" points="355.191,-52.1593 351.691,-42.1593 348.191,-52.1593 355.191,-52.1593"/>
</g>
<!-- 2 -->
<g id="node17" class="node"><title>2</title>
<polygon fill="goldenrod" stroke="black" points="434.907,-209.145 270.475,-209.145 270.475,-167.145 434.907,-167.145 434.907,-209.145"/>
<text text-anchor="middle" x="352.691" y="-190.945" font-family="Times,serif" font-size="14.00">MAVLinkHS.CRC</text>
<text text-anchor="middle" x="352.691" y="-176.945" font-family="Times,serif" font-size="14.00">crcCalculate</text>
</g>
<!-- 2&#45;&gt;1 -->
<g id="edge2" class="edge"><title>2&#45;&gt;1</title>
<path fill="none" stroke="black" d="M352.459,-166.933C352.334,-156.045 352.177,-142.392 352.038,-130.262"/>
<polygon fill="black" stroke="black" points="355.536,-130.061 351.922,-120.102 348.537,-130.142 355.536,-130.061"/>
</g>
<!-- 6 -->
<g id="node21" class="node"><title>6</title>
<polygon fill="bisque" stroke="black" points="616.907,-120 452.475,-120 452.475,-78 616.907,-78 616.907,-120"/>
<text text-anchor="middle" x="534.691" y="-101.8" font-family="Times,serif" font-size="14.00">MAVLinkHS.CRC</text>
<text text-anchor="middle" x="534.691" y="-87.8" font-family="Times,serif" font-size="14.00">swapBytes</text>
</g>
<!-- 2&#45;&gt;6 -->
<g id="edge3" class="edge"><title>2&#45;&gt;6</title>
<path fill="none" stroke="black" d="M390.054,-167.105C406.399,-158.516 425.873,-148.521 443.691,-140 454.638,-134.765 466.436,-129.388 477.792,-124.342"/>
<polygon fill="black" stroke="black" points="479.463,-127.431 487.199,-120.192 476.637,-121.026 479.463,-127.431"/>
</g>
<!-- 3 -->
<g id="node18" class="node"><title>3</title>
<polygon fill="goldenrod" stroke="black" points="466.907,-327.436 302.475,-327.436 302.475,-285.436 466.907,-285.436 466.907,-327.436"/>
<text text-anchor="middle" x="384.691" y="-309.236" font-family="Times,serif" font-size="14.00">MAVLinkHS.CRC</text>
<text text-anchor="middle" x="384.691" y="-295.236" font-family="Times,serif" font-size="14.00">crcCalculateExtra</text>
</g>
<!-- 3&#45;&gt;2 -->
<g id="edge4" class="edge"><title>3&#45;&gt;2</title>
<path fill="none" stroke="chartreuse" d="M379.117,-285.18C374.092,-266.92 366.638,-239.831 360.927,-219.075"/>
<polygon fill="chartreuse" stroke="chartreuse" points="364.229,-217.883 358.201,-209.17 357.48,-219.74 364.229,-217.883"/>
</g>
<!-- 4 -->
<g id="node19" class="node"><title>4</title>
<polygon fill="cyan" stroke="black" points="799.907,-42 635.475,-42 635.475,-0 799.907,-0 799.907,-42"/>
<text text-anchor="middle" x="717.691" y="-23.8" font-family="Times,serif" font-size="14.00">MAVLinkHS.CRC</text>
<text text-anchor="middle" x="717.691" y="-9.8" font-family="Times,serif" font-size="14.00">highByte</text>
</g>
<!-- 5 -->
<g id="node20" class="node"><title>5</title>
<polygon fill="cyan" stroke="black" points="616.907,-42 452.475,-42 452.475,-0 616.907,-0 616.907,-42"/>
<text text-anchor="middle" x="534.691" y="-23.8" font-family="Times,serif" font-size="14.00">MAVLinkHS.CRC</text>
<text text-anchor="middle" x="534.691" y="-9.8" font-family="Times,serif" font-size="14.00">lowByte</text>
</g>
<!-- 6&#45;&gt;4 -->
<g id="edge5" class="edge"><title>6&#45;&gt;4</title>
<path fill="none" stroke="black" d="M583.251,-77.8329C606.818,-68.0455 635.3,-56.2168 659.971,-45.9711"/>
<polygon fill="black" stroke="black" points="661.329,-49.1971 669.222,-42.1293 658.644,-42.7325 661.329,-49.1971"/>
</g>
<!-- 6&#45;&gt;5 -->
<g id="edge6" class="edge"><title>6&#45;&gt;5</title>
<path fill="none" stroke="black" d="M534.691,-77.6334C534.691,-69.8186 534.691,-60.7253 534.691,-52.183"/>
<polygon fill="black" stroke="black" points="538.191,-52.1593 534.691,-42.1593 531.191,-52.1593 538.191,-52.1593"/>
</g>
<!-- 14 -->
<g id="node23" class="node"><title>14</title>
<polygon fill="gold" stroke="black" points="723.573,-532.872 471.809,-532.872 471.809,-490.872 723.573,-490.872 723.573,-532.872"/>
<text text-anchor="middle" x="597.691" y="-514.672" font-family="Times,serif" font-size="14.00">MAVLinkHS.Messages.HeartBeat</text>
<text text-anchor="middle" x="597.691" y="-500.672" font-family="Times,serif" font-size="14.00">heartBeatCRC</text>
</g>
<!-- 15 -->
<g id="node24" class="node"><title>15</title>
<polygon fill="goldenrod" stroke="black" points="251.573,-120 -0.191208,-120 -0.191208,-78 251.573,-78 251.573,-120"/>
<text text-anchor="middle" x="125.691" y="-101.8" font-family="Times,serif" font-size="14.00">MAVLinkHS.Messages.HeartBeat</text>
<text text-anchor="middle" x="125.691" y="-87.8" font-family="Times,serif" font-size="14.00">heartBeatLen</text>
</g>
<!-- 23 -->
<g id="node25" class="node"><title>23</title>
<polygon fill="crimson" stroke="black" points="454.244,-532.872 367.138,-532.872 367.138,-490.872 454.244,-490.872 454.244,-532.872"/>
<text text-anchor="middle" x="410.691" y="-514.672" font-family="Times,serif" font-size="14.00">Main</text>
<text text-anchor="middle" x="410.691" y="-500.672" font-family="Times,serif" font-size="14.00">main</text>
</g>
<!-- 23&#45;&gt;21 -->
<g id="edge22" class="edge"><title>23&#45;&gt;21</title>
<path fill="none" stroke="black" d="M454.4,-493.1C457.181,-492.268 459.96,-491.515 462.691,-490.872 499.197,-482.284 509.656,-488.772 546.691,-482.872 764.521,-448.176 1013.27,-383.379 1158.36,-342.987"/>
<polygon fill="black" stroke="black" points="1159.5,-346.301 1168.19,-340.242 1157.62,-339.559 1159.5,-346.301"/>
</g>
<!-- 24 -->
<g id="node26" class="node"><title>24</title>
<polygon fill="crimson" stroke="black" points="478.164,-437.727 343.218,-437.727 343.218,-395.727 478.164,-395.727 478.164,-437.727"/>
<text text-anchor="middle" x="410.691" y="-419.527" font-family="Times,serif" font-size="14.00">Main</text>
<text text-anchor="middle" x="410.691" y="-405.527" font-family="Times,serif" font-size="14.00">serializedChk</text>
</g>
<!-- 23&#45;&gt;24 -->
<g id="edge23" class="edge"><title>23&#45;&gt;24</title>
<path fill="none" stroke="black" d="M410.691,-490.661C410.691,-478.211 410.691,-462.014 410.691,-448.046"/>
<polygon fill="black" stroke="black" points="414.191,-447.899 410.691,-437.899 407.191,-447.899 414.191,-447.899"/>
</g>
<!-- 25 -->
<g id="node27" class="node"><title>25</title>
<polygon fill="crimson" stroke="black" points="284.274,-327.436 153.108,-327.436 153.108,-285.436 284.274,-285.436 284.274,-327.436"/>
<text text-anchor="middle" x="218.691" y="-309.236" font-family="Times,serif" font-size="14.00">Main</text>
<text text-anchor="middle" x="218.691" y="-295.236" font-family="Times,serif" font-size="14.00">serializedHB</text>
</g>
<!-- 23&#45;&gt;25 -->
<g id="edge24" class="edge"><title>23&#45;&gt;25</title>
<path fill="none" stroke="black" stroke-width="1.69315" d="M366.805,-500.015C355.587,-495.872 344.061,-490.293 334.691,-482.872 284.42,-443.063 248.532,-375.312 230.95,-336.69"/>
<polygon fill="black" stroke="black" stroke-width="1.69315" points="234.139,-335.247 226.877,-327.533 227.743,-338.092 234.139,-335.247"/>
</g>
<!-- 26 -->
<g id="node28" class="node"><title>26</title>
<polygon fill="crimson" stroke="black" points="544.633,-209.145 452.748,-209.145 452.748,-167.145 544.633,-167.145 544.633,-209.145"/>
<text text-anchor="middle" x="498.691" y="-190.945" font-family="Times,serif" font-size="14.00">Main</text>
<text text-anchor="middle" x="498.691" y="-176.945" font-family="Times,serif" font-size="14.00">testhb</text>
</g>
<!-- 23&#45;&gt;26 -->
<g id="edge25" class="edge"><title>23&#45;&gt;26</title>
<path fill="none" stroke="black" stroke-width="1.69315" d="M454.33,-493.923C457.154,-492.877 459.96,-491.852 462.691,-490.872 473.274,-487.076 479.439,-491.465 486.691,-482.872 550.66,-407.078 524.425,-277.097 508.073,-218.872"/>
<polygon fill="black" stroke="black" stroke-width="1.69315" points="511.41,-217.813 505.257,-209.188 504.689,-219.768 511.41,-217.813"/>
</g>
<!-- 27 -->
<g id="node29" class="node"><title>27</title>
<polygon fill="crimson" stroke="black" points="176.237,-209.145 75.145,-209.145 75.145,-167.145 176.237,-167.145 176.237,-209.145"/>
<text text-anchor="middle" x="125.691" y="-190.945" font-family="Times,serif" font-size="14.00">Main</text>
<text text-anchor="middle" x="125.691" y="-176.945" font-family="Times,serif" font-size="14.00">teststart</text>
</g>
<!-- 23&#45;&gt;27 -->
<g id="edge26" class="edge"><title>23&#45;&gt;27</title>
<path fill="none" stroke="black" d="M366.917,-510.436C333.36,-508.446 286.829,-502.004 250.691,-482.872 190.332,-450.918 172.412,-434.545 143.691,-372.582 120.604,-322.772 120.377,-257.338 122.739,-219.592"/>
<polygon fill="black" stroke="black" points="126.255,-219.494 123.495,-209.265 119.274,-218.983 126.255,-219.494"/>
</g>
<!-- 24&#45;&gt;21 -->
<g id="edge28" class="edge"><title>24&#45;&gt;21</title>
<path fill="none" stroke="black" d="M478.345,-410.838C574.601,-403.915 756.615,-390.944 911.691,-380.582 967.679,-376.84 982.314,-381.641 1037.69,-372.582 1079.46,-365.748 1124.43,-354.804 1164.24,-343.822"/>
<polygon fill="black" stroke="black" points="1165.29,-347.164 1173.98,-341.106 1163.41,-340.421 1165.29,-347.164"/>
</g>
<!-- 24&#45;&gt;3 -->
<g id="edge27" class="edge"><title>24&#45;&gt;3</title>
<path fill="none" stroke="black" d="M405.861,-395.612C401.921,-379.201 396.297,-355.775 391.835,-337.193"/>
<polygon fill="black" stroke="black" points="395.232,-336.35 389.495,-327.443 388.426,-337.984 395.232,-336.35"/>
</g>
<!-- 24&#45;&gt;25 -->
<g id="edge29" class="edge"><title>24&#45;&gt;25</title>
<path fill="none" stroke="black" d="M343.495,-395.668C326.678,-389.39 309.063,-381.676 293.691,-372.582 276.195,-362.231 258.911,-347.601 245.353,-334.828"/>
<polygon fill="black" stroke="black" points="247.454,-331.991 237.827,-327.567 242.594,-337.029 247.454,-331.991"/>
</g>
<!-- 24&#45;&gt;26 -->
<g id="edge30" class="edge"><title>24&#45;&gt;26</title>
<path fill="none" stroke="black" d="M452.522,-395.649C461.495,-389.459 469.983,-381.792 475.691,-372.582 504.975,-325.325 505.161,-258.038 502.218,-219.461"/>
<polygon fill="black" stroke="black" points="505.694,-219.035 501.327,-209.383 498.721,-219.652 505.694,-219.035"/>
</g>
<!-- 25&#45;&gt;26 -->
<g id="edge31" class="edge"><title>25&#45;&gt;26</title>
<path fill="none" stroke="black" d="M243.449,-285.359C257.349,-275.3 275.513,-264.058 293.691,-258.291 325.509,-248.196 413.572,-264.683 443.691,-250.291 458.659,-243.138 471.37,-229.883 480.789,-217.538"/>
<polygon fill="black" stroke="black" points="483.772,-219.384 486.771,-209.223 478.09,-215.296 483.772,-219.384"/>
</g>
<!-- 25&#45;&gt;27 -->
<g id="edge32" class="edge"><title>25&#45;&gt;27</title>
<path fill="none" stroke="black" d="M202.492,-285.18C187.422,-266.337 164.833,-238.091 148.05,-217.104"/>
<polygon fill="black" stroke="black" points="150.684,-214.793 141.705,-209.17 145.217,-219.165 150.684,-214.793"/>
</g>
<!-- 26&#45;&gt;8 -->
<g id="edge33" class="edge"><title>26&#45;&gt;8</title>
<path fill="none" stroke="black" d="M544.224,-167.101C569.708,-156.916 602.367,-145.546 632.691,-140 784.851,-112.173 1824.69,-103.123 2201.61,-100.736"/>
<polygon fill="black" stroke="black" points="2201.77,-104.236 2211.75,-100.673 2201.73,-97.2358 2201.77,-104.236"/>
</g>
<!-- 27&#45;&gt;15 -->
<g id="edge34" class="edge"><title>27&#45;&gt;15</title>
<path fill="none" stroke="chartreuse" d="M125.691,-166.933C125.691,-156.045 125.691,-142.392 125.691,-130.262"/>
<polygon fill="chartreuse" stroke="chartreuse" points="129.191,-130.102 125.691,-120.102 122.191,-130.102 129.191,-130.102"/>
</g>
</g>
</svg>
