<?xml version="1.0" encoding="UTF-8" standalone="no"?>
<!DOCTYPE svg PUBLIC "-//W3C//DTD SVG 1.1//EN"
 "http://www.w3.org/Graphics/SVG/1.1/DTD/svg11.dtd">
<!-- Generated by graphviz version 2.38.0 (20140413.2041)
 -->
<!-- Title: Chinese Whispers module suggestions Pages: 1 -->
<svg width="1867pt" height="525pt"
 viewBox="0.00 0.00 1867.00 524.58" xmlns="http://www.w3.org/2000/svg" xmlns:xlink="http://www.w3.org/1999/xlink">
<g id="graph0" class="graph" transform="scale(1 1) rotate(0) translate(4 520.582)">
<title>Chinese Whispers module suggestions</title>
<polygon fill="white" stroke="none" points="-4,4 -4,-520.582 1863,-520.582 1863,4 -4,4"/>
<g id="clust1" class="cluster"><title>cluster_1</title>
<polygon fill="lavender" stroke="black" points="416,-86 416,-508.582 1292,-508.582 1292,-86 416,-86"/>
</g>
<g id="clust2" class="cluster"><title>cluster_2</title>
<polygon fill="lavender" stroke="black" points="1300,-8 1300,-144 1663,-144 1663,-8 1300,-8"/>
</g>
<g id="clust3" class="cluster"><title>cluster_3</title>
<polygon fill="lavender" stroke="black" points="8,-86 8,-352.582 408,-352.582 408,-86 8,-86"/>
</g>
<g id="clust4" class="cluster"><title>cluster_4</title>
<polygon fill="lavender" stroke="black" points="1671,-8 1671,-144 1851,-144 1851,-8 1671,-8"/>
</g>
<g id="clust5" class="cluster"><title>cluster_5</title>
<polygon fill="lavender" stroke="black" points="1391,-175.145 1391,-233.145 1571,-233.145 1571,-175.145 1391,-175.145"/>
</g>
<g id="clust6" class="cluster"><title>cluster_6</title>
<polygon fill="lavender" stroke="black" points="1441,-450.582 1441,-508.582 1709,-508.582 1709,-450.582 1441,-450.582"/>
</g>
<!-- 3 -->
<g id="node1" class="node"><title>3</title>
<polygon fill="goldenrod" stroke="black" points="1264.22,-329.436 1099.78,-329.436 1099.78,-287.436 1264.22,-287.436 1264.22,-329.436"/>
<text text-anchor="middle" x="1182" y="-311.236" font-family="Times,serif" font-size="14.00">MAVLinkHS.CRC</text>
<text text-anchor="middle" x="1182" y="-297.236" font-family="Times,serif" font-size="14.00">crcCalculateExtra</text>
</g>
<!-- 2 -->
<g id="node18" class="node"><title>2</title>
<polygon fill="goldenrod" stroke="black" points="1563.22,-225.145 1398.78,-225.145 1398.78,-183.145 1563.22,-183.145 1563.22,-225.145"/>
<text text-anchor="middle" x="1481" y="-206.945" font-family="Times,serif" font-size="14.00">MAVLinkHS.CRC</text>
<text text-anchor="middle" x="1481" y="-192.945" font-family="Times,serif" font-size="14.00">crcCalculate</text>
</g>
<!-- 3&#45;&gt;2 -->
<g id="edge4" class="edge"><title>3&#45;&gt;2</title>
<path fill="none" stroke="chartreuse" d="M1240.72,-287.349C1290.19,-270.424 1361.01,-246.196 1412.95,-228.426"/>
<polygon fill="chartreuse" stroke="chartreuse" points="1414.09,-231.735 1422.42,-225.187 1411.82,-225.112 1414.09,-231.735"/>
</g>
<!-- 11 -->
<g id="node2" class="node"><title>11</title>
<polygon fill="cyan" stroke="black" points="882.081,-190.77 882.081,-217.521 747.888,-236.437 558.112,-236.437 423.919,-217.521 423.919,-190.77 558.112,-171.854 747.888,-171.854 882.081,-190.77"/>
<text text-anchor="middle" x="653" y="-206.945" font-family="Times,serif" font-size="14.00">MAVLinkHS.Messages.HeartBeat</text>
<text text-anchor="middle" x="653" y="-192.945" font-family="Times,serif" font-size="14.00">Class: MAVLinkMessage, Data: HeartBeat</text>
</g>
<!-- 15 -->
<g id="node3" class="node"><title>15</title>
<polygon fill="goldenrod" stroke="black" points="1234.88,-136 983.118,-136 983.118,-94 1234.88,-94 1234.88,-136"/>
<text text-anchor="middle" x="1109" y="-117.8" font-family="Times,serif" font-size="14.00">MAVLinkHS.Messages.HeartBeat</text>
<text text-anchor="middle" x="1109" y="-103.8" font-family="Times,serif" font-size="14.00">heartBeatLen</text>
</g>
<!-- 21 -->
<g id="node4" class="node"><title>21</title>
<polygon fill="goldenrod" stroke="black" points="888.145,-295.067 888.145,-321.805 753.329,-340.711 562.671,-340.711 427.855,-321.805 427.855,-295.067 562.671,-276.161 753.329,-276.161 888.145,-295.067"/>
<polygon fill="none" stroke="black" points="892.142,-291.573 892.142,-325.3 753.607,-344.728 562.393,-344.728 423.858,-325.3 423.858,-291.573 562.393,-272.145 753.607,-272.145 892.142,-291.573"/>
<text text-anchor="middle" x="658" y="-311.236" font-family="Times,serif" font-size="14.00">MAVLinkHS.Messages.MAVLinkMessage</text>
<text text-anchor="middle" x="658" y="-297.236" font-family="Times,serif" font-size="14.00">Class: MAVLinkMessage</text>
</g>
<!-- 21&#45;&gt;11 -->
<g id="edge8" class="edge"><title>21&#45;&gt;11</title>
<path fill="none" stroke="navy" stroke-width="1.69315" d="M656.279,-272.234C655.709,-260.56 655.078,-247.655 654.523,-236.307"/>
</g>
<!-- 23 -->
<g id="node5" class="node"><title>23</title>
<polygon fill="crimson" stroke="black" points="1040.55,-500.582 953.447,-500.582 953.447,-458.582 1040.55,-458.582 1040.55,-500.582"/>
<text text-anchor="middle" x="997" y="-482.382" font-family="Times,serif" font-size="14.00">Main</text>
<text text-anchor="middle" x="997" y="-468.382" font-family="Times,serif" font-size="14.00">main</text>
</g>
<!-- 23&#45;&gt;21 -->
<g id="edge9" class="edge"><title>23&#45;&gt;21</title>
<path fill="none" stroke="black" d="M956.781,-458.514C902.985,-431.673 806.414,-383.488 737.626,-349.166"/>
<polygon fill="black" stroke="black" points="739.046,-345.963 728.535,-344.63 735.921,-352.227 739.046,-345.963"/>
</g>
<!-- 24 -->
<g id="node6" class="node"><title>24</title>
<polygon fill="crimson" stroke="black" points="1064.47,-422.582 929.527,-422.582 929.527,-380.582 1064.47,-380.582 1064.47,-422.582"/>
<text text-anchor="middle" x="997" y="-404.382" font-family="Times,serif" font-size="14.00">Main</text>
<text text-anchor="middle" x="997" y="-390.382" font-family="Times,serif" font-size="14.00">serializedChk</text>
</g>
<!-- 23&#45;&gt;24 -->
<g id="edge10" class="edge"><title>23&#45;&gt;24</title>
<path fill="none" stroke="black" d="M997,-458.215C997,-450.4 997,-441.307 997,-432.765"/>
<polygon fill="black" stroke="black" points="1000.5,-432.741 997,-422.741 993.5,-432.741 1000.5,-432.741"/>
</g>
<!-- 25 -->
<g id="node7" class="node"><title>25</title>
<polygon fill="crimson" stroke="black" points="1081.58,-329.436 950.417,-329.436 950.417,-287.436 1081.58,-287.436 1081.58,-329.436"/>
<text text-anchor="middle" x="1016" y="-311.236" font-family="Times,serif" font-size="14.00">Main</text>
<text text-anchor="middle" x="1016" y="-297.236" font-family="Times,serif" font-size="14.00">serializedHB</text>
</g>
<!-- 23&#45;&gt;25 -->
<g id="edge11" class="edge"><title>23&#45;&gt;25</title>
<path fill="none" stroke="black" stroke-width="1.69315" d="M1038.23,-458.366C1051.86,-449.423 1065.46,-437.502 1073,-422.582 1087.79,-393.304 1066.01,-359.738 1045.24,-336.817"/>
<polygon fill="black" stroke="black" stroke-width="1.69315" points="1047.7,-334.331 1038.29,-329.473 1042.62,-339.142 1047.7,-334.331"/>
</g>
<!-- 26 -->
<g id="node8" class="node"><title>26</title>
<polygon fill="crimson" stroke="black" points="991.942,-225.145 900.058,-225.145 900.058,-183.145 991.942,-183.145 991.942,-225.145"/>
<text text-anchor="middle" x="946" y="-206.945" font-family="Times,serif" font-size="14.00">Main</text>
<text text-anchor="middle" x="946" y="-192.945" font-family="Times,serif" font-size="14.00">testhb</text>
</g>
<!-- 23&#45;&gt;26 -->
<g id="edge12" class="edge"><title>23&#45;&gt;26</title>
<path fill="none" stroke="black" stroke-width="1.69315" d="M955.766,-458.366C942.136,-449.423 928.539,-437.502 921,-422.582 890.077,-361.385 915.168,-278.43 932.672,-234.794"/>
<polygon fill="black" stroke="black" stroke-width="1.69315" points="935.994,-235.92 936.594,-225.342 929.528,-233.237 935.994,-235.92"/>
</g>
<!-- 27 -->
<g id="node9" class="node"><title>27</title>
<polygon fill="crimson" stroke="black" points="1159.55,-225.145 1058.45,-225.145 1058.45,-183.145 1159.55,-183.145 1159.55,-225.145"/>
<text text-anchor="middle" x="1109" y="-206.945" font-family="Times,serif" font-size="14.00">Main</text>
<text text-anchor="middle" x="1109" y="-192.945" font-family="Times,serif" font-size="14.00">teststart</text>
</g>
<!-- 23&#45;&gt;27 -->
<g id="edge13" class="edge"><title>23&#45;&gt;27</title>
<path fill="none" stroke="black" d="M1040.65,-473.169C1104.5,-462.643 1221.38,-432.894 1273,-352.582 1292.29,-322.563 1292.89,-301.921 1273,-272.291 1250.04,-238.082 1206.23,-221.289 1169.66,-213.053"/>
<polygon fill="black" stroke="black" points="1170.06,-209.562 1159.56,-210.949 1168.64,-216.415 1170.06,-209.562"/>
</g>
<!-- 24&#45;&gt;3 -->
<g id="edge14" class="edge"><title>24&#45;&gt;3</title>
<path fill="none" stroke="black" d="M1037.6,-380.579C1065.34,-366.914 1102.28,-348.713 1131.85,-334.142"/>
<polygon fill="black" stroke="black" points="1133.75,-337.108 1141.18,-329.549 1130.66,-330.829 1133.75,-337.108"/>
</g>
<!-- 24&#45;&gt;21 -->
<g id="edge15" class="edge"><title>24&#45;&gt;21</title>
<path fill="none" stroke="black" d="M929.213,-382.356C888.541,-371.421 835.469,-357.152 787.068,-344.138"/>
<polygon fill="black" stroke="black" points="787.703,-340.685 777.137,-341.468 785.885,-347.445 787.703,-340.685"/>
</g>
<!-- 24&#45;&gt;25 -->
<g id="edge16" class="edge"><title>24&#45;&gt;25</title>
<path fill="none" stroke="black" d="M1001.22,-380.354C1003.7,-368.435 1006.89,-353.126 1009.67,-339.784"/>
<polygon fill="black" stroke="black" points="1013.18,-340.112 1011.8,-329.608 1006.33,-338.683 1013.18,-340.112"/>
</g>
<!-- 24&#45;&gt;26 -->
<g id="edge17" class="edge"><title>24&#45;&gt;26</title>
<path fill="none" stroke="black" d="M964.148,-380.381C954.916,-372.893 946.03,-363.517 941,-352.582 923.693,-314.953 930.248,-266.029 937.423,-235.097"/>
<polygon fill="black" stroke="black" points="940.833,-235.888 939.846,-225.339 934.039,-234.2 940.833,-235.888"/>
</g>
<!-- 25&#45;&gt;26 -->
<g id="edge18" class="edge"><title>25&#45;&gt;26</title>
<path fill="none" stroke="black" d="M1002.17,-287.227C991.72,-271.956 977.236,-250.791 965.594,-233.778"/>
<polygon fill="black" stroke="black" points="968.337,-231.589 959.801,-225.313 962.56,-235.542 968.337,-231.589"/>
</g>
<!-- 25&#45;&gt;27 -->
<g id="edge19" class="edge"><title>25&#45;&gt;27</title>
<path fill="none" stroke="black" d="M1034.37,-287.227C1048.51,-271.676 1068.21,-250.012 1083.82,-232.846"/>
<polygon fill="black" stroke="black" points="1086.53,-235.066 1090.66,-225.313 1081.35,-230.357 1086.53,-235.066"/>
</g>
<!-- 8 -->
<g id="node13" class="node"><title>8</title>
<polygon fill="goldenrod" stroke="black" points="366.882,-136 119.118,-136 115.118,-132 115.118,-94 362.882,-94 366.882,-98 366.882,-136"/>
<polyline fill="none" stroke="black" points="362.882,-132 115.118,-132 "/>
<polyline fill="none" stroke="black" points="362.882,-132 362.882,-94 "/>
<polyline fill="none" stroke="black" points="362.882,-132 366.882,-136 "/>
<text text-anchor="middle" x="241" y="-117.8" font-family="Times,serif" font-size="14.00">MAVLinkHS.Messages.HeartBeat</text>
<text text-anchor="middle" x="241" y="-103.8" font-family="Times,serif" font-size="14.00">Data: HeartBeat</text>
</g>
<!-- 26&#45;&gt;8 -->
<g id="edge20" class="edge"><title>26&#45;&gt;8</title>
<path fill="none" stroke="black" d="M916.275,-183.067C908.375,-178.656 899.631,-174.546 891,-172 788.73,-141.835 517.978,-155.742 412,-144 396.153,-142.244 379.538,-140.015 363.153,-137.584"/>
<polygon fill="black" stroke="black" points="363.4,-134.082 352.989,-136.047 362.353,-141.003 363.4,-134.082"/>
</g>
<!-- 27&#45;&gt;15 -->
<g id="edge21" class="edge"><title>27&#45;&gt;15</title>
<path fill="none" stroke="chartreuse" d="M1109,-182.933C1109,-172.045 1109,-158.392 1109,-146.262"/>
<polygon fill="chartreuse" stroke="chartreuse" points="1112.5,-146.102 1109,-136.102 1105.5,-146.102 1112.5,-146.102"/>
</g>
<!-- 4 -->
<g id="node10" class="node"><title>4</title>
<polygon fill="cyan" stroke="black" points="1472.22,-58 1307.78,-58 1307.78,-16 1472.22,-16 1472.22,-58"/>
<text text-anchor="middle" x="1390" y="-39.8" font-family="Times,serif" font-size="14.00">MAVLinkHS.CRC</text>
<text text-anchor="middle" x="1390" y="-25.8" font-family="Times,serif" font-size="14.00">highByte</text>
</g>
<!-- 5 -->
<g id="node11" class="node"><title>5</title>
<polygon fill="cyan" stroke="black" points="1655.22,-58 1490.78,-58 1490.78,-16 1655.22,-16 1655.22,-58"/>
<text text-anchor="middle" x="1573" y="-39.8" font-family="Times,serif" font-size="14.00">MAVLinkHS.CRC</text>
<text text-anchor="middle" x="1573" y="-25.8" font-family="Times,serif" font-size="14.00">lowByte</text>
</g>
<!-- 6 -->
<g id="node12" class="node"><title>6</title>
<polygon fill="bisque" stroke="black" points="1563.22,-136 1398.78,-136 1398.78,-94 1563.22,-94 1563.22,-136"/>
<text text-anchor="middle" x="1481" y="-117.8" font-family="Times,serif" font-size="14.00">MAVLinkHS.CRC</text>
<text text-anchor="middle" x="1481" y="-103.8" font-family="Times,serif" font-size="14.00">swapBytes</text>
</g>
<!-- 6&#45;&gt;4 -->
<g id="edge5" class="edge"><title>6&#45;&gt;4</title>
<path fill="none" stroke="black" d="M1456.61,-93.6334C1446.02,-84.7881 1433.47,-74.3049 1422.13,-64.8365"/>
<polygon fill="black" stroke="black" points="1424.06,-61.8831 1414.14,-58.1593 1419.57,-67.2558 1424.06,-61.8831"/>
</g>
<!-- 6&#45;&gt;5 -->
<g id="edge6" class="edge"><title>6&#45;&gt;5</title>
<path fill="none" stroke="black" d="M1505.65,-93.6334C1516.47,-84.7022 1529.3,-74.1012 1540.85,-64.561"/>
<polygon fill="black" stroke="black" points="1543.12,-67.2265 1548.6,-58.1593 1538.66,-61.8298 1543.12,-67.2265"/>
</g>
<!-- 13 -->
<g id="node14" class="node"><title>13</title>
<polygon fill="bisque" stroke="black" points="400.299,-190.77 400.299,-217.521 287.653,-236.437 128.347,-236.437 15.7013,-217.521 15.7013,-190.77 128.347,-171.854 287.653,-171.854 400.299,-190.77"/>
<text text-anchor="middle" x="208" y="-206.945" font-family="Times,serif" font-size="14.00">MAVLinkHS.Messages.HeartBeat</text>
<text text-anchor="middle" x="208" y="-192.945" font-family="Times,serif" font-size="14.00">Class: Binary, Data: HeartBeat</text>
</g>
<!-- 13&#45;&gt;8 -->
<g id="edge7" class="edge"><title>13&#45;&gt;8</title>
<path fill="none" stroke="black" stroke-width="2.94591" d="M219.914,-171.684C223.151,-163.134 226.645,-153.908 229.84,-145.472"/>
<polygon fill="black" stroke="black" stroke-width="2.94591" points="233.151,-146.612 233.419,-136.02 226.604,-144.133 233.151,-146.612"/>
</g>
<!-- 28 -->
<g id="node15" class="node"><title>28</title>
<polygon fill="khaki" stroke="black" stroke-dasharray="1,5" points="330.829,-295.067 330.829,-321.805 258.878,-340.711 157.122,-340.711 85.1706,-321.805 85.1706,-295.067 157.122,-276.161 258.878,-276.161 330.829,-295.067"/>
<polygon fill="none" stroke="black" stroke-dasharray="1,5" points="334.835,-291.968 334.835,-324.904 259.394,-344.728 156.606,-344.728 81.1653,-324.904 81.1653,-291.968 156.606,-272.145 259.394,-272.145 334.835,-291.968"/>
<text text-anchor="middle" x="208" y="-311.236" font-family="Times,serif" font-size="14.00">Unknown Module</text>
<text text-anchor="middle" x="208" y="-297.236" font-family="Times,serif" font-size="14.00">Class: Binary</text>
</g>
<!-- 28&#45;&gt;13 -->
<g id="edge22" class="edge"><title>28&#45;&gt;13</title>
<path fill="none" stroke="navy" stroke-width="1.69315" d="M208,-272.234C208,-260.56 208,-247.655 208,-236.307"/>
</g>
<!-- 1 -->
<g id="node16" class="node"><title>1</title>
<polygon fill="bisque" stroke="black" points="1843.22,-136 1678.78,-136 1678.78,-94 1843.22,-94 1843.22,-136"/>
<text text-anchor="middle" x="1761" y="-117.8" font-family="Times,serif" font-size="14.00">MAVLinkHS.CRC</text>
<text text-anchor="middle" x="1761" y="-103.8" font-family="Times,serif" font-size="14.00">crcAccumulate</text>
</g>
<!-- 7 -->
<g id="node17" class="node"><title>7</title>
<polygon fill="cyan" stroke="black" points="1843.22,-58 1678.78,-58 1678.78,-16 1843.22,-16 1843.22,-58"/>
<text text-anchor="middle" x="1761" y="-39.8" font-family="Times,serif" font-size="14.00">MAVLinkHS.CRC</text>
<text text-anchor="middle" x="1761" y="-25.8" font-family="Times,serif" font-size="14.00">toWord8</text>
</g>
<!-- 1&#45;&gt;7 -->
<g id="edge1" class="edge"><title>1&#45;&gt;7</title>
<path fill="none" stroke="chartreuse" d="M1761,-93.6334C1761,-85.8186 1761,-76.7253 1761,-68.183"/>
<polygon fill="chartreuse" stroke="chartreuse" points="1764.5,-68.1593 1761,-58.1593 1757.5,-68.1593 1764.5,-68.1593"/>
</g>
<!-- 2&#45;&gt;6 -->
<g id="edge3" class="edge"><title>2&#45;&gt;6</title>
<path fill="none" stroke="black" d="M1481,-182.933C1481,-172.045 1481,-158.392 1481,-146.262"/>
<polygon fill="black" stroke="black" points="1484.5,-146.102 1481,-136.102 1477.5,-146.102 1484.5,-146.102"/>
</g>
<!-- 2&#45;&gt;1 -->
<g id="edge2" class="edge"><title>2&#45;&gt;1</title>
<path fill="none" stroke="black" d="M1545.59,-183.043C1587.78,-169.911 1643,-152.726 1686.96,-139.043"/>
<polygon fill="black" stroke="black" points="1688.23,-142.315 1696.74,-136.001 1686.15,-135.631 1688.23,-142.315"/>
</g>
<!-- 14 -->
<g id="node19" class="node"><title>14</title>
<polygon fill="gold" stroke="black" points="1700.88,-500.582 1449.12,-500.582 1449.12,-458.582 1700.88,-458.582 1700.88,-500.582"/>
<text text-anchor="middle" x="1575" y="-482.382" font-family="Times,serif" font-size="14.00">MAVLinkHS.Messages.HeartBeat</text>
<text text-anchor="middle" x="1575" y="-468.382" font-family="Times,serif" font-size="14.00">heartBeatCRC</text>
</g>
</g>
</svg>
