<?xml version="1.0" encoding="UTF-8" standalone="no"?>
<!DOCTYPE svg PUBLIC "-//W3C//DTD SVG 1.1//EN"
 "http://www.w3.org/Graphics/SVG/1.1/DTD/svg11.dtd">
<!-- Generated by graphviz version 2.38.0 (20140413.2041)
 -->
<!-- Title: Levels within software Pages: 1 -->
<svg width="1770pt" height="733pt"
 viewBox="0.00 0.00 1770.00 732.58" xmlns="http://www.w3.org/2000/svg" xmlns:xlink="http://www.w3.org/1999/xlink">
<g id="graph0" class="graph" transform="scale(1 1) rotate(0) translate(4 728.582)">
<title>Levels within software</title>
<polygon fill="white" stroke="none" points="-4,4 -4,-728.582 1766,-728.582 1766,4 -4,4"/>
<g id="clust1" class="cluster"><title>cluster_&#45;1</title>
<polygon fill="lavender" stroke="black" points="421,-402.582 421,-716.582 648,-716.582 648,-402.582 421,-402.582"/>
<text text-anchor="middle" x="534.5" y="-701.382" font-family="Times,serif" font-size="14.00">Inaccessible entities</text>
</g>
<g id="clust2" class="cluster"><title>cluster_0</title>
<polygon fill="lavender" stroke="black" points="8,-206.291 8,-394.582 1754,-394.582 1754,-206.291 8,-206.291"/>
<text text-anchor="middle" x="881" y="-379.382" font-family="Times,serif" font-size="14.00">Exported root entities</text>
</g>
<g id="clust3" class="cluster"><title>cluster_1</title>
<polygon fill="lavender" stroke="black" points="335,-96 335,-198.291 1578,-198.291 1578,-96 335,-96"/>
<text text-anchor="middle" x="956.5" y="-183.091" font-family="Times,serif" font-size="14.00">Level = 1</text>
</g>
<g id="clust4" class="cluster"><title>cluster_2</title>
<polygon fill="lavender" stroke="black" points="152,-8 152,-88 698,-88 698,-8 152,-8"/>
<text text-anchor="middle" x="425" y="-72.8" font-family="Times,serif" font-size="14.00">Level = 2</text>
</g>
<!-- 23 -->
<g id="node1" class="node"><title>23</title>
<polygon fill="crimson" stroke="black" points="530.553,-686.582 443.447,-686.582 443.447,-644.582 530.553,-644.582 530.553,-686.582"/>
<text text-anchor="middle" x="487" y="-668.382" font-family="Times,serif" font-size="14.00">Main</text>
<text text-anchor="middle" x="487" y="-654.382" font-family="Times,serif" font-size="14.00">main</text>
</g>
<!-- 24 -->
<g id="node2" class="node"><title>24</title>
<polygon fill="crimson" stroke="black" points="640.473,-608.582 505.527,-608.582 505.527,-566.582 640.473,-566.582 640.473,-608.582"/>
<text text-anchor="middle" x="573" y="-590.382" font-family="Times,serif" font-size="14.00">Main</text>
<text text-anchor="middle" x="573" y="-576.382" font-family="Times,serif" font-size="14.00">serializedChk</text>
</g>
<!-- 23&#45;&gt;24 -->
<g id="edge10" class="edge"><title>23&#45;&gt;24</title>
<path fill="none" stroke="black" d="M510.046,-644.215C520.056,-635.37 531.918,-624.887 542.632,-615.418"/>
<polygon fill="black" stroke="black" points="545.013,-617.986 550.188,-608.741 540.377,-612.74 545.013,-617.986"/>
</g>
<!-- 25 -->
<g id="node3" class="node"><title>25</title>
<polygon fill="crimson" stroke="black" points="580.583,-530.582 449.417,-530.582 449.417,-488.582 580.583,-488.582 580.583,-530.582"/>
<text text-anchor="middle" x="515" y="-512.382" font-family="Times,serif" font-size="14.00">Main</text>
<text text-anchor="middle" x="515" y="-498.382" font-family="Times,serif" font-size="14.00">serializedHB</text>
</g>
<!-- 23&#45;&gt;25 -->
<g id="edge11" class="edge"><title>23&#45;&gt;25</title>
<path fill="none" stroke="black" stroke-width="1.69315" d="M482.321,-644.29C478.528,-624.19 474.873,-592.714 482,-566.582 484.573,-557.147 489.185,-547.683 494.161,-539.291"/>
<polygon fill="black" stroke="black" stroke-width="1.69315" points="497.235,-540.979 499.625,-530.657 491.32,-537.236 497.235,-540.979"/>
</g>
<!-- 26 -->
<g id="node4" class="node"><title>26</title>
<polygon fill="crimson" stroke="black" points="639.942,-452.582 548.058,-452.582 548.058,-410.582 639.942,-410.582 639.942,-452.582"/>
<text text-anchor="middle" x="594" y="-434.382" font-family="Times,serif" font-size="14.00">Main</text>
<text text-anchor="middle" x="594" y="-420.382" font-family="Times,serif" font-size="14.00">testhb</text>
</g>
<!-- 23&#45;&gt;26 -->
<g id="edge12" class="edge"><title>23&#45;&gt;26</title>
<path fill="none" stroke="black" stroke-width="1.69315" d="M483.356,-644.349C480.671,-622.83 479.991,-588.883 497,-566.582 523.879,-531.34 564.207,-566.625 590,-530.582 603.903,-511.154 603.768,-483.587 600.807,-462.637"/>
<polygon fill="black" stroke="black" stroke-width="1.69315" points="604.238,-461.932 599.118,-452.656 597.336,-463.1 604.238,-461.932"/>
</g>
<!-- 27 -->
<g id="node5" class="node"><title>27</title>
<polygon fill="crimson" stroke="black" points="530.546,-452.582 429.454,-452.582 429.454,-410.582 530.546,-410.582 530.546,-452.582"/>
<text text-anchor="middle" x="480" y="-434.382" font-family="Times,serif" font-size="14.00">Main</text>
<text text-anchor="middle" x="480" y="-420.382" font-family="Times,serif" font-size="14.00">teststart</text>
</g>
<!-- 23&#45;&gt;27 -->
<g id="edge13" class="edge"><title>23&#45;&gt;27</title>
<path fill="none" stroke="black" d="M474.039,-644.335C454.641,-611.4 422.144,-544.299 440,-488.582 443.172,-478.683 448.808,-469.045 454.867,-460.633"/>
<polygon fill="black" stroke="black" points="457.671,-462.727 460.991,-452.666 452.121,-458.461 457.671,-462.727"/>
</g>
<!-- 21 -->
<g id="node11" class="node"><title>21</title>
<polygon fill="goldenrod" stroke="black" points="1742.14,-315.067 1742.14,-341.805 1607.33,-360.711 1416.67,-360.711 1281.86,-341.805 1281.86,-315.067 1416.67,-296.161 1607.33,-296.161 1742.14,-315.067"/>
<polygon fill="none" stroke="black" points="1746.14,-311.573 1746.14,-345.3 1607.61,-364.728 1416.39,-364.728 1277.86,-345.3 1277.86,-311.573 1416.39,-292.145 1607.61,-292.145 1746.14,-311.573"/>
<text text-anchor="middle" x="1512" y="-331.236" font-family="Times,serif" font-size="14.00">MAVLinkHS.Messages.MAVLinkMessage</text>
<text text-anchor="middle" x="1512" y="-317.236" font-family="Times,serif" font-size="14.00">Class: MAVLinkMessage</text>
</g>
<!-- 23&#45;&gt;21 -->
<g id="edge9" class="edge"><title>23&#45;&gt;21</title>
<path fill="none" stroke="black" d="M530.74,-651.492C638.68,-619.057 926.229,-531.85 1164,-452.582 1245.58,-425.383 1337.26,-392.863 1406.02,-368.073"/>
<polygon fill="black" stroke="black" points="1407.35,-371.314 1415.57,-364.628 1404.98,-364.73 1407.35,-371.314"/>
</g>
<!-- 24&#45;&gt;25 -->
<g id="edge16" class="edge"><title>24&#45;&gt;25</title>
<path fill="none" stroke="black" d="M557.457,-566.215C551.034,-557.799 543.48,-547.9 536.538,-538.804"/>
<polygon fill="black" stroke="black" points="539.234,-536.567 530.385,-530.741 533.669,-540.814 539.234,-536.567"/>
</g>
<!-- 24&#45;&gt;26 -->
<g id="edge17" class="edge"><title>24&#45;&gt;26</title>
<path fill="none" stroke="black" d="M587.915,-566.44C594.545,-556.248 601.609,-543.352 605,-530.582 610.923,-508.28 607.56,-482.297 603.048,-462.692"/>
<polygon fill="black" stroke="black" points="606.391,-461.636 600.55,-452.797 599.604,-463.349 606.391,-461.636"/>
</g>
<!-- 3 -->
<g id="node7" class="node"><title>3</title>
<polygon fill="goldenrod" stroke="black" points="450.216,-349.436 285.784,-349.436 285.784,-307.436 450.216,-307.436 450.216,-349.436"/>
<text text-anchor="middle" x="368" y="-331.236" font-family="Times,serif" font-size="14.00">MAVLinkHS.CRC</text>
<text text-anchor="middle" x="368" y="-317.236" font-family="Times,serif" font-size="14.00">crcCalculateExtra</text>
</g>
<!-- 24&#45;&gt;3 -->
<g id="edge14" class="edge"><title>24&#45;&gt;3</title>
<path fill="none" stroke="black" d="M593.766,-566.525C629.554,-529.617 694.806,-450.357 649,-402.582 634.377,-387.33 478.978,-401.462 459,-394.582 435.635,-386.534 413.024,-370.403 396.186,-356.207"/>
<polygon fill="black" stroke="black" points="398.247,-353.361 388.406,-349.437 393.652,-358.641 398.247,-353.361"/>
</g>
<!-- 24&#45;&gt;21 -->
<g id="edge15" class="edge"><title>24&#45;&gt;21</title>
<path fill="none" stroke="black" d="M640.531,-568.088C796.2,-525.458 1182.34,-419.715 1384.29,-364.409"/>
<polygon fill="black" stroke="black" points="1385.35,-367.749 1394.07,-361.732 1383.5,-360.998 1385.35,-367.749"/>
</g>
<!-- 25&#45;&gt;26 -->
<g id="edge18" class="edge"><title>25&#45;&gt;26</title>
<path fill="none" stroke="black" d="M536.171,-488.215C545.276,-479.456 556.051,-469.09 565.817,-459.694"/>
<polygon fill="black" stroke="black" points="568.265,-462.196 573.045,-452.741 563.412,-457.152 568.265,-462.196"/>
</g>
<!-- 25&#45;&gt;27 -->
<g id="edge19" class="edge"><title>25&#45;&gt;27</title>
<path fill="none" stroke="black" d="M505.621,-488.215C501.903,-480.143 497.557,-470.706 493.512,-461.922"/>
<polygon fill="black" stroke="black" points="496.646,-460.36 489.284,-452.741 490.288,-463.288 496.646,-460.36"/>
</g>
<!-- 8 -->
<g id="node8" class="node"><title>8</title>
<polygon fill="goldenrod" stroke="black" points="719.882,-349.436 472.118,-349.436 468.118,-345.436 468.118,-307.436 715.882,-307.436 719.882,-311.436 719.882,-349.436"/>
<polyline fill="none" stroke="black" points="715.882,-345.436 468.118,-345.436 "/>
<polyline fill="none" stroke="black" points="715.882,-345.436 715.882,-307.436 "/>
<polyline fill="none" stroke="black" points="715.882,-345.436 719.882,-349.436 "/>
<text text-anchor="middle" x="594" y="-331.236" font-family="Times,serif" font-size="14.00">MAVLinkHS.Messages.HeartBeat</text>
<text text-anchor="middle" x="594" y="-317.236" font-family="Times,serif" font-size="14.00">Data: HeartBeat</text>
</g>
<!-- 26&#45;&gt;8 -->
<g id="edge20" class="edge"><title>26&#45;&gt;8</title>
<path fill="none" stroke="black" d="M594,-410.113C594,-395.624 594,-375.95 594,-359.658"/>
<polygon fill="black" stroke="black" points="597.5,-359.529 594,-349.529 590.5,-359.529 597.5,-359.529"/>
</g>
<!-- 15 -->
<g id="node10" class="node"><title>15</title>
<polygon fill="goldenrod" stroke="black" points="267.882,-349.436 16.1179,-349.436 16.1179,-307.436 267.882,-307.436 267.882,-349.436"/>
<text text-anchor="middle" x="142" y="-331.236" font-family="Times,serif" font-size="14.00">MAVLinkHS.Messages.HeartBeat</text>
<text text-anchor="middle" x="142" y="-317.236" font-family="Times,serif" font-size="14.00">heartBeatLen</text>
</g>
<!-- 27&#45;&gt;15 -->
<g id="edge21" class="edge"><title>27&#45;&gt;15</title>
<path fill="none" stroke="chartreuse" d="M429.431,-425.515C387.785,-420.422 327.577,-410.926 277,-394.582 245.352,-384.355 211.657,-368.102 185.846,-354.39"/>
<polygon fill="chartreuse" stroke="chartreuse" points="187.176,-351.131 176.712,-349.469 183.855,-357.293 187.176,-351.131"/>
</g>
<!-- 2 -->
<g id="node6" class="node"><title>2</title>
<polygon fill="goldenrod" stroke="black" points="507.216,-256.291 342.784,-256.291 342.784,-214.291 507.216,-214.291 507.216,-256.291"/>
<text text-anchor="middle" x="425" y="-238.091" font-family="Times,serif" font-size="14.00">MAVLinkHS.CRC</text>
<text text-anchor="middle" x="425" y="-224.091" font-family="Times,serif" font-size="14.00">crcCalculate</text>
</g>
<!-- 1 -->
<g id="node13" class="node"><title>1</title>
<polygon fill="bisque" stroke="black" points="690.216,-157.145 525.784,-157.145 525.784,-115.145 690.216,-115.145 690.216,-157.145"/>
<text text-anchor="middle" x="608" y="-138.945" font-family="Times,serif" font-size="14.00">MAVLinkHS.CRC</text>
<text text-anchor="middle" x="608" y="-124.945" font-family="Times,serif" font-size="14.00">crcAccumulate</text>
</g>
<!-- 2&#45;&gt;1 -->
<g id="edge2" class="edge"><title>2&#45;&gt;1</title>
<path fill="none" stroke="black" d="M481.171,-214.211C492.886,-209.432 505.008,-204.036 516,-198.291 535.539,-188.078 556.082,-174.707 572.787,-163.073"/>
<polygon fill="black" stroke="black" points="574.995,-165.8 581.148,-157.174 570.959,-160.08 574.995,-165.8"/>
</g>
<!-- 6 -->
<g id="node14" class="node"><title>6</title>
<polygon fill="bisque" stroke="black" points="507.216,-157.145 342.784,-157.145 342.784,-115.145 507.216,-115.145 507.216,-157.145"/>
<text text-anchor="middle" x="425" y="-138.945" font-family="Times,serif" font-size="14.00">MAVLinkHS.CRC</text>
<text text-anchor="middle" x="425" y="-124.945" font-family="Times,serif" font-size="14.00">swapBytes</text>
</g>
<!-- 2&#45;&gt;6 -->
<g id="edge3" class="edge"><title>2&#45;&gt;6</title>
<path fill="none" stroke="black" d="M425,-214.162C425,-200.616 425,-182.512 425,-167.26"/>
<polygon fill="black" stroke="black" points="428.5,-167.248 425,-157.248 421.5,-167.248 428.5,-167.248"/>
</g>
<!-- 3&#45;&gt;2 -->
<g id="edge4" class="edge"><title>3&#45;&gt;2</title>
<path fill="none" stroke="chartreuse" d="M380.65,-307.208C388.399,-294.818 398.439,-278.763 407.007,-265.063"/>
<polygon fill="chartreuse" stroke="chartreuse" points="410.05,-266.797 412.385,-256.462 404.115,-263.085 410.05,-266.797"/>
</g>
<!-- 14 -->
<g id="node9" class="node"><title>14</title>
<polygon fill="gold" stroke="black" points="988.882,-349.436 737.118,-349.436 737.118,-307.436 988.882,-307.436 988.882,-349.436"/>
<text text-anchor="middle" x="863" y="-331.236" font-family="Times,serif" font-size="14.00">MAVLinkHS.Messages.HeartBeat</text>
<text text-anchor="middle" x="863" y="-317.236" font-family="Times,serif" font-size="14.00">heartBeatCRC</text>
</g>
<!-- 11 -->
<g id="node15" class="node"><title>11</title>
<polygon fill="cyan" stroke="black" points="1570.08,-122.77 1570.08,-149.521 1435.89,-168.437 1246.11,-168.437 1111.92,-149.521 1111.92,-122.77 1246.11,-103.854 1435.89,-103.854 1570.08,-122.77"/>
<text text-anchor="middle" x="1341" y="-138.945" font-family="Times,serif" font-size="14.00">MAVLinkHS.Messages.HeartBeat</text>
<text text-anchor="middle" x="1341" y="-124.945" font-family="Times,serif" font-size="14.00">Class: MAVLinkMessage, Data: HeartBeat</text>
</g>
<!-- 21&#45;&gt;11 -->
<g id="edge8" class="edge"><title>21&#45;&gt;11</title>
<path fill="none" stroke="navy" stroke-width="1.69315" d="M1480.24,-292.09C1448.36,-256.621 1399.74,-202.507 1369.19,-168.516"/>
</g>
<!-- 28 -->
<g id="node12" class="node"><title>28</title>
<polygon fill="khaki" stroke="black" stroke-dasharray="1,5" points="1255.83,-315.067 1255.83,-341.805 1183.88,-360.711 1082.12,-360.711 1010.17,-341.805 1010.17,-315.067 1082.12,-296.161 1183.88,-296.161 1255.83,-315.067"/>
<polygon fill="none" stroke="black" stroke-dasharray="1,5" points="1259.83,-311.968 1259.83,-344.904 1184.39,-364.728 1081.61,-364.728 1006.17,-344.904 1006.17,-311.968 1081.61,-292.145 1184.39,-292.145 1259.83,-311.968"/>
<text text-anchor="middle" x="1133" y="-331.236" font-family="Times,serif" font-size="14.00">Unknown Module</text>
<text text-anchor="middle" x="1133" y="-317.236" font-family="Times,serif" font-size="14.00">Class: Binary</text>
</g>
<!-- 13 -->
<g id="node16" class="node"><title>13</title>
<polygon fill="bisque" stroke="black" points="1093.3,-122.77 1093.3,-149.521 980.653,-168.437 821.347,-168.437 708.701,-149.521 708.701,-122.77 821.347,-103.854 980.653,-103.854 1093.3,-122.77"/>
<text text-anchor="middle" x="901" y="-138.945" font-family="Times,serif" font-size="14.00">MAVLinkHS.Messages.HeartBeat</text>
<text text-anchor="middle" x="901" y="-124.945" font-family="Times,serif" font-size="14.00">Class: Binary, Data: HeartBeat</text>
</g>
<!-- 28&#45;&gt;13 -->
<g id="edge22" class="edge"><title>28&#45;&gt;13</title>
<path fill="none" stroke="navy" stroke-width="1.69315" d="M1089.91,-292.09C1046.66,-256.621 980.687,-202.507 939.247,-168.516"/>
</g>
<!-- 7 -->
<g id="node19" class="node"><title>7</title>
<polygon fill="cyan" stroke="black" points="690.216,-58 525.784,-58 525.784,-16 690.216,-16 690.216,-58"/>
<text text-anchor="middle" x="608" y="-39.8" font-family="Times,serif" font-size="14.00">MAVLinkHS.CRC</text>
<text text-anchor="middle" x="608" y="-25.8" font-family="Times,serif" font-size="14.00">toWord8</text>
</g>
<!-- 1&#45;&gt;7 -->
<g id="edge1" class="edge"><title>1&#45;&gt;7</title>
<path fill="none" stroke="chartreuse" d="M608,-115.017C608,-101.47 608,-83.3665 608,-68.1149"/>
<polygon fill="chartreuse" stroke="chartreuse" points="611.5,-68.1028 608,-58.1028 604.5,-68.1028 611.5,-68.1028"/>
</g>
<!-- 4 -->
<g id="node17" class="node"><title>4</title>
<polygon fill="cyan" stroke="black" points="324.216,-58 159.784,-58 159.784,-16 324.216,-16 324.216,-58"/>
<text text-anchor="middle" x="242" y="-39.8" font-family="Times,serif" font-size="14.00">MAVLinkHS.CRC</text>
<text text-anchor="middle" x="242" y="-25.8" font-family="Times,serif" font-size="14.00">highByte</text>
</g>
<!-- 6&#45;&gt;4 -->
<g id="edge5" class="edge"><title>6&#45;&gt;4</title>
<path fill="none" stroke="black" d="M385.942,-115.125C369.822,-106.807 350.974,-97.0084 334,-88 318.841,-79.9548 302.351,-71.0436 287.573,-62.9992"/>
<polygon fill="black" stroke="black" points="289.075,-59.832 278.62,-58.118 285.725,-65.9779 289.075,-59.832"/>
</g>
<!-- 5 -->
<g id="node18" class="node"><title>5</title>
<polygon fill="cyan" stroke="black" points="507.216,-58 342.784,-58 342.784,-16 507.216,-16 507.216,-58"/>
<text text-anchor="middle" x="425" y="-39.8" font-family="Times,serif" font-size="14.00">MAVLinkHS.CRC</text>
<text text-anchor="middle" x="425" y="-25.8" font-family="Times,serif" font-size="14.00">lowByte</text>
</g>
<!-- 6&#45;&gt;5 -->
<g id="edge6" class="edge"><title>6&#45;&gt;5</title>
<path fill="none" stroke="black" d="M425,-115.017C425,-101.47 425,-83.3665 425,-68.1149"/>
<polygon fill="black" stroke="black" points="428.5,-68.1028 425,-58.1028 421.5,-68.1028 428.5,-68.1028"/>
</g>
<!-- 13&#45;&gt;8 -->
<g id="edge7" class="edge"><title>13&#45;&gt;8</title>
<path fill="none" stroke="black" stroke-width="2.94591" d="M850.713,-168.316C790.427,-205.683 690.569,-267.579 634.828,-302.129"/>
<polygon fill="black" stroke="black" stroke-width="2.94591" points="632.93,-299.188 626.274,-307.431 636.618,-305.138 632.93,-299.188"/>
</g>
</g>
</svg>
