<?xml version="1.0" encoding="UTF-8" standalone="no"?>
<!DOCTYPE svg PUBLIC "-//W3C//DTD SVG 1.1//EN"
 "http://www.w3.org/Graphics/SVG/1.1/DTD/svg11.dtd">
<!-- Generated by graphviz version 2.38.0 (20140413.2041)
 -->
<!-- Title: Current module groupings Pages: 1 -->
<svg width="1634pt" height="517pt"
 viewBox="0.00 0.00 1634.00 516.58" xmlns="http://www.w3.org/2000/svg" xmlns:xlink="http://www.w3.org/1999/xlink">
<g id="graph0" class="graph" transform="scale(1 1) rotate(0) translate(4 512.582)">
<title>Current module groupings</title>
<polygon fill="white" stroke="none" points="-4,4 -4,-512.582 1630,-512.582 1630,4 -4,4"/>
<g id="clust1" class="cluster"><title>cluster_MAVLinkHS&#45;CRC</title>
<polygon fill="lavender" stroke="black" points="8,-8 8,-347.151 381,-347.151 381,-8 8,-8"/>
<text text-anchor="middle" x="194.5" y="-331.951" font-family="Times,serif" font-size="14.00">MAVLinkHS.CRC</text>
</g>
<g id="clust2" class="cluster"><title>cluster_MAVLinkHS&#45;Messages&#45;HeartBeat</title>
<polygon fill="lavender" stroke="black" points="463,-8 463,-160.861 1618,-160.861 1618,-8 463,-8"/>
<text text-anchor="middle" x="1040.5" y="-145.661" font-family="Times,serif" font-size="14.00">MAVLinkHS.Messages.HeartBeat</text>
</g>
<g id="clust3" class="cluster"><title>cluster_MAVLinkHS&#45;Messages&#45;MAVLinkMessage</title>
<polygon fill="lavender" stroke="black" points="624,-265.721 624,-354.582 958,-354.582 958,-265.721 624,-265.721"/>
<text text-anchor="middle" x="791" y="-339.382" font-family="Times,serif" font-size="14.00">MAVLinkHS.Messages.MAVLinkMessage</text>
</g>
<g id="clust4" class="cluster"><title>cluster_Main</title>
<polygon fill="lavender" stroke="black" points="389,-176.291 389,-500.582 616,-500.582 616,-176.291 389,-176.291"/>
<text text-anchor="middle" x="502.5" y="-485.382" font-family="Times,serif" font-size="14.00">Main</text>
</g>
<g id="clust5" class="cluster"><title>cluster_Unknown Module</title>
<polygon fill="lavender" stroke="black" points="1320,-168.861 1320,-257.721 1548,-257.721 1548,-168.861 1320,-168.861"/>
<text text-anchor="middle" x="1434" y="-242.521" font-family="Times,serif" font-size="14.00">Unknown Module</text>
</g>
<!-- 1 -->
<g id="node1" class="node"><title>1</title>
<polygon fill="bisque" stroke="black" points="172.225,-127.43 29.7751,-127.43 29.7751,-91.4303 172.225,-91.4303 172.225,-127.43"/>
<text text-anchor="middle" x="101" y="-105.23" font-family="Times,serif" font-size="14.00">crcAccumulate</text>
</g>
<!-- 7 -->
<g id="node7" class="node"><title>7</title>
<polygon fill="cyan" stroke="black" points="122.152,-52 15.8481,-52 15.8481,-16 122.152,-16 122.152,-52"/>
<text text-anchor="middle" x="69" y="-29.8" font-family="Times,serif" font-size="14.00">toWord8</text>
</g>
<!-- 1&#45;&gt;7 -->
<g id="edge1" class="edge"><title>1&#45;&gt;7</title>
<path fill="none" stroke="chartreuse" d="M93.5781,-91.3993C89.7286,-82.5657 84.9384,-71.5738 80.6121,-61.6463"/>
<polygon fill="chartreuse" stroke="chartreuse" points="83.6961,-59.962 76.4925,-52.193 77.279,-62.7586 83.6961,-59.962"/>
</g>
<!-- 2 -->
<g id="node2" class="node"><title>2</title>
<polygon fill="goldenrod" stroke="black" points="320.952,-220.291 193.048,-220.291 193.048,-184.291 320.952,-184.291 320.952,-220.291"/>
<text text-anchor="middle" x="257" y="-198.091" font-family="Times,serif" font-size="14.00">crcCalculate</text>
</g>
<!-- 2&#45;&gt;1 -->
<g id="edge2" class="edge"><title>2&#45;&gt;1</title>
<path fill="none" stroke="black" d="M227.658,-184.201C202.6,-169.606 166.387,-148.514 139.095,-132.619"/>
<polygon fill="black" stroke="black" points="140.614,-129.452 130.211,-127.444 137.09,-135.501 140.614,-129.452"/>
</g>
<!-- 6 -->
<g id="node6" class="node"><title>6</title>
<polygon fill="bisque" stroke="black" points="316.163,-127.43 197.837,-127.43 197.837,-91.4303 316.163,-91.4303 316.163,-127.43"/>
<text text-anchor="middle" x="257" y="-105.23" font-family="Times,serif" font-size="14.00">swapBytes</text>
</g>
<!-- 2&#45;&gt;6 -->
<g id="edge3" class="edge"><title>2&#45;&gt;6</title>
<path fill="none" stroke="black" d="M257,-184.201C257,-171.129 257,-152.845 257,-137.751"/>
<polygon fill="black" stroke="black" points="260.5,-137.444 257,-127.444 253.5,-137.444 260.5,-137.444"/>
</g>
<!-- 3 -->
<g id="node3" class="node"><title>3</title>
<polygon fill="goldenrod" stroke="black" points="365.27,-317.151 206.73,-317.151 206.73,-281.151 365.27,-281.151 365.27,-317.151"/>
<text text-anchor="middle" x="286" y="-294.951" font-family="Times,serif" font-size="14.00">crcCalculateExtra</text>
</g>
<!-- 3&#45;&gt;2 -->
<g id="edge4" class="edge"><title>3&#45;&gt;2</title>
<path fill="none" stroke="chartreuse" d="M280.681,-280.752C276.389,-266.712 270.273,-246.707 265.332,-230.545"/>
<polygon fill="chartreuse" stroke="chartreuse" points="268.556,-229.119 262.285,-220.579 261.862,-231.166 268.556,-229.119"/>
</g>
<!-- 4 -->
<g id="node4" class="node"><title>4</title>
<polygon fill="cyan" stroke="black" points="372.832,-52 263.168,-52 263.168,-16 372.832,-16 372.832,-52"/>
<text text-anchor="middle" x="318" y="-29.8" font-family="Times,serif" font-size="14.00">highByte</text>
</g>
<!-- 5 -->
<g id="node5" class="node"><title>5</title>
<polygon fill="cyan" stroke="black" points="245.942,-52 140.058,-52 140.058,-16 245.942,-16 245.942,-52"/>
<text text-anchor="middle" x="193" y="-29.8" font-family="Times,serif" font-size="14.00">lowByte</text>
</g>
<!-- 6&#45;&gt;4 -->
<g id="edge5" class="edge"><title>6&#45;&gt;4</title>
<path fill="none" stroke="black" d="M271.148,-91.3993C278.868,-82.1057 288.573,-70.423 297.145,-60.1042"/>
<polygon fill="black" stroke="black" points="300.02,-62.1216 303.717,-52.193 294.635,-57.6486 300.02,-62.1216"/>
</g>
<!-- 6&#45;&gt;5 -->
<g id="edge6" class="edge"><title>6&#45;&gt;5</title>
<path fill="none" stroke="black" d="M242.156,-91.3993C233.976,-82.0136 223.672,-70.1914 214.613,-59.7981"/>
<polygon fill="black" stroke="black" points="217.194,-57.4319 207.985,-52.193 211.917,-62.0312 217.194,-57.4319"/>
</g>
<!-- 8 -->
<g id="node8" class="node"><title>8</title>
<polygon fill="goldenrod" stroke="black" points="1063.06,-52 918.937,-52 914.937,-48 914.937,-16 1059.06,-16 1063.06,-20 1063.06,-52"/>
<polyline fill="none" stroke="black" points="1059.06,-48 914.937,-48 "/>
<polyline fill="none" stroke="black" points="1059.06,-48 1059.06,-16 "/>
<polyline fill="none" stroke="black" points="1059.06,-48 1063.06,-52 "/>
<text text-anchor="middle" x="989" y="-29.8" font-family="Times,serif" font-size="14.00">Data: HeartBeat</text>
</g>
<!-- 11 -->
<g id="node9" class="node"><title>11</title>
<polygon fill="cyan" stroke="black" points="1239.08,-100.582 1239.08,-118.278 1104.89,-130.791 915.112,-130.791 780.919,-118.278 780.919,-100.582 915.112,-88.0695 1104.89,-88.0695 1239.08,-100.582"/>
<text text-anchor="middle" x="1010" y="-105.23" font-family="Times,serif" font-size="14.00">Class: MAVLinkMessage, Data: HeartBeat</text>
</g>
<!-- 13 -->
<g id="node10" class="node"><title>13</title>
<polygon fill="bisque" stroke="black" points="1610.31,-100.582 1610.31,-118.278 1507.03,-130.791 1360.97,-130.791 1257.69,-118.278 1257.69,-100.582 1360.97,-88.0695 1507.03,-88.0695 1610.31,-100.582"/>
<text text-anchor="middle" x="1434" y="-105.23" font-family="Times,serif" font-size="14.00">Class: Binary, Data: HeartBeat</text>
</g>
<!-- 13&#45;&gt;8 -->
<g id="edge7" class="edge"><title>13&#45;&gt;8</title>
<path fill="none" stroke="black" stroke-width="2.94591" d="M1331.91,-91.5839C1253.61,-78.6633 1146.84,-61.0449 1073.34,-48.9179"/>
<polygon fill="black" stroke="black" stroke-width="2.94591" points="1073.64,-45.4191 1063.2,-47.2442 1072.5,-52.3257 1073.64,-45.4191"/>
</g>
<!-- 14 -->
<g id="node11" class="node"><title>14</title>
<polygon fill="gold" stroke="black" points="762.649,-127.43 623.351,-127.43 623.351,-91.4303 762.649,-91.4303 762.649,-127.43"/>
<text text-anchor="middle" x="693" y="-105.23" font-family="Times,serif" font-size="14.00">heartBeatCRC</text>
</g>
<!-- 15 -->
<g id="node12" class="node"><title>15</title>
<polygon fill="goldenrod" stroke="black" points="604.901,-127.43 471.099,-127.43 471.099,-91.4303 604.901,-91.4303 604.901,-127.43"/>
<text text-anchor="middle" x="538" y="-105.23" font-family="Times,serif" font-size="14.00">heartBeatLen</text>
</g>
<!-- 21 -->
<g id="node13" class="node"><title>21</title>
<polygon fill="goldenrod" stroke="black" points="945.735,-290.299 945.735,-308.004 855.093,-320.523 726.907,-320.523 636.265,-308.004 636.265,-290.299 726.907,-277.78 855.093,-277.78 945.735,-290.299"/>
<polygon fill="none" stroke="black" points="949.738,-286.825 949.738,-311.478 855.37,-324.512 726.63,-324.512 632.262,-311.478 632.262,-286.825 726.63,-273.791 855.37,-273.791 949.738,-286.825"/>
<text text-anchor="middle" x="791" y="-294.951" font-family="Times,serif" font-size="14.00">Class: MAVLinkMessage</text>
</g>
<!-- 21&#45;&gt;11 -->
<g id="edge8" class="edge"><title>21&#45;&gt;11</title>
<path fill="none" stroke="navy" stroke-width="1.69315" d="M819.63,-273.61C863.225,-236.242 945.458,-165.754 986.068,-130.944"/>
</g>
<!-- 23 -->
<g id="node14" class="node"><title>23</title>
<polygon fill="crimson" stroke="black" points="607.993,-470.582 522.007,-470.582 522.007,-434.582 607.993,-434.582 607.993,-470.582"/>
<text text-anchor="middle" x="565" y="-448.382" font-family="Times,serif" font-size="14.00">main</text>
</g>
<!-- 23&#45;&gt;21 -->
<g id="edge9" class="edge"><title>23&#45;&gt;21</title>
<path fill="none" stroke="black" d="M590.486,-434.505C628.196,-409.237 699.41,-361.521 746.025,-330.287"/>
<polygon fill="black" stroke="black" points="748.07,-333.13 754.429,-324.655 744.173,-327.314 748.07,-333.13"/>
</g>
<!-- 24 -->
<g id="node15" class="node"><title>24</title>
<polygon fill="crimson" stroke="black" points="568.473,-398.582 433.527,-398.582 433.527,-362.582 568.473,-362.582 568.473,-398.582"/>
<text text-anchor="middle" x="501" y="-376.382" font-family="Times,serif" font-size="14.00">serializedChk</text>
</g>
<!-- 23&#45;&gt;24 -->
<g id="edge10" class="edge"><title>23&#45;&gt;24</title>
<path fill="none" stroke="black" d="M549.18,-434.278C541.43,-425.801 531.961,-415.445 523.476,-406.164"/>
<polygon fill="black" stroke="black" points="525.969,-403.705 516.638,-398.686 520.803,-408.428 525.969,-403.705"/>
</g>
<!-- 25 -->
<g id="node16" class="node"><title>25</title>
<polygon fill="crimson" stroke="black" points="587.583,-317.151 456.417,-317.151 456.417,-281.151 587.583,-281.151 587.583,-317.151"/>
<text text-anchor="middle" x="522" y="-294.951" font-family="Times,serif" font-size="14.00">serializedHB</text>
</g>
<!-- 23&#45;&gt;25 -->
<g id="edge11" class="edge"><title>23&#45;&gt;25</title>
<path fill="none" stroke="black" stroke-width="1.69315" d="M572.155,-434.292C578.659,-415.937 585.979,-386.356 577,-362.582 571.579,-348.228 561.188,-335.038 550.885,-324.517"/>
<polygon fill="black" stroke="black" stroke-width="1.69315" points="553.092,-321.783 543.47,-317.349 548.227,-326.816 553.092,-321.783"/>
</g>
<!-- 26 -->
<g id="node17" class="node"><title>26</title>
<polygon fill="crimson" stroke="black" points="488.942,-220.291 397.058,-220.291 397.058,-184.291 488.942,-184.291 488.942,-220.291"/>
<text text-anchor="middle" x="443" y="-198.091" font-family="Times,serif" font-size="14.00">testhb</text>
</g>
<!-- 23&#45;&gt;26 -->
<g id="edge12" class="edge"><title>23&#45;&gt;26</title>
<path fill="none" stroke="black" stroke-width="1.69315" d="M521.946,-447.982C489.359,-442.738 446.638,-429.909 425,-398.582 389.769,-347.574 413.756,-270.338 430.549,-229.983"/>
<polygon fill="black" stroke="black" stroke-width="1.69315" points="433.869,-231.124 434.623,-220.556 427.443,-228.347 433.869,-231.124"/>
</g>
<!-- 27 -->
<g id="node18" class="node"><title>27</title>
<polygon fill="crimson" stroke="black" points="607.546,-220.291 506.454,-220.291 506.454,-184.291 607.546,-184.291 607.546,-220.291"/>
<text text-anchor="middle" x="557" y="-198.091" font-family="Times,serif" font-size="14.00">teststart</text>
</g>
<!-- 23&#45;&gt;27 -->
<g id="edge13" class="edge"><title>23&#45;&gt;27</title>
<path fill="none" stroke="black" d="M573.087,-434.372C587.554,-401.208 614.762,-326.366 597,-265.721 593.117,-252.464 585.461,-239.351 577.877,-228.591"/>
<polygon fill="black" stroke="black" points="580.652,-226.457 571.884,-220.509 575.029,-230.626 580.652,-226.457"/>
</g>
<!-- 24&#45;&gt;3 -->
<g id="edge14" class="edge"><title>24&#45;&gt;3</title>
<path fill="none" stroke="black" d="M433.492,-368.49C417.343,-364.895 400.343,-360.313 385,-354.582 362.736,-346.265 339.368,-333.627 320.93,-322.622"/>
<polygon fill="black" stroke="black" points="322.664,-319.58 312.301,-317.376 319.028,-325.561 322.664,-319.58"/>
</g>
<!-- 24&#45;&gt;21 -->
<g id="edge15" class="edge"><title>24&#45;&gt;21</title>
<path fill="none" stroke="black" d="M568.618,-366.614C585.48,-363.041 603.465,-358.938 620,-354.582 650.315,-346.594 683.218,-336.477 711.991,-327.137"/>
<polygon fill="black" stroke="black" points="713.163,-330.437 721.581,-324.004 710.989,-323.783 713.163,-330.437"/>
</g>
<!-- 24&#45;&gt;25 -->
<g id="edge16" class="edge"><title>24&#45;&gt;25</title>
<path fill="none" stroke="black" d="M505.557,-362.346C508.281,-352.042 511.801,-338.727 514.885,-327.062"/>
<polygon fill="black" stroke="black" points="518.28,-327.915 517.452,-317.353 511.512,-326.126 518.28,-327.915"/>
</g>
<!-- 24&#45;&gt;26 -->
<g id="edge17" class="edge"><title>24&#45;&gt;26</title>
<path fill="none" stroke="black" d="M453.959,-362.408C451.3,-360.112 448.93,-357.516 447,-354.582 422.481,-317.307 428.729,-262.918 435.716,-230.518"/>
<polygon fill="black" stroke="black" points="439.206,-230.964 438.071,-220.43 432.389,-229.373 439.206,-230.964"/>
</g>
<!-- 25&#45;&gt;26 -->
<g id="edge18" class="edge"><title>25&#45;&gt;26</title>
<path fill="none" stroke="black" d="M507.51,-280.752C495.372,-266.177 477.881,-245.174 464.173,-228.715"/>
<polygon fill="black" stroke="black" points="466.487,-226.024 457.398,-220.579 461.108,-230.503 466.487,-226.024"/>
</g>
<!-- 25&#45;&gt;27 -->
<g id="edge19" class="edge"><title>25&#45;&gt;27</title>
<path fill="none" stroke="black" d="M528.42,-280.752C533.649,-266.578 541.122,-246.326 547.114,-230.084"/>
<polygon fill="black" stroke="black" points="550.443,-231.173 550.621,-220.579 543.876,-228.75 550.443,-231.173"/>
</g>
<!-- 26&#45;&gt;8 -->
<g id="edge20" class="edge"><title>26&#45;&gt;8</title>
<path fill="none" stroke="black" d="M440.151,-184.169C437.061,-159.088 435.648,-112.669 462,-88 493.599,-58.4184 763.802,-43.6804 904.529,-37.9536"/>
<polygon fill="black" stroke="black" points="904.993,-41.4379 914.845,-37.5405 904.713,-34.4435 904.993,-41.4379"/>
</g>
<!-- 27&#45;&gt;15 -->
<g id="edge21" class="edge"><title>27&#45;&gt;15</title>
<path fill="none" stroke="chartreuse" d="M553.426,-184.201C550.666,-171.002 546.795,-152.49 543.621,-137.312"/>
<polygon fill="chartreuse" stroke="chartreuse" points="547.031,-136.516 541.558,-127.444 540.179,-137.949 547.031,-136.516"/>
</g>
<!-- 28 -->
<g id="node19" class="node"><title>28</title>
<polygon fill="khaki" stroke="black" stroke-dasharray="1,5" points="1536.36,-193.438 1536.36,-211.143 1476.4,-223.662 1391.6,-223.662 1331.64,-211.143 1331.64,-193.438 1391.6,-180.919 1476.4,-180.919 1536.36,-193.438"/>
<polygon fill="none" stroke="black" stroke-dasharray="1,5" points="1540.36,-190.198 1540.36,-214.384 1476.81,-227.652 1391.19,-227.652 1327.64,-214.384 1327.64,-190.198 1391.19,-176.93 1476.81,-176.93 1540.36,-190.198"/>
<text text-anchor="middle" x="1434" y="-198.091" font-family="Times,serif" font-size="14.00">Class: Binary</text>
</g>
<!-- 28&#45;&gt;13 -->
<g id="edge22" class="edge"><title>28&#45;&gt;13</title>
<path fill="none" stroke="navy" stroke-width="1.69315" d="M1434,-176.463C1434,-162.171 1434,-144.428 1434,-130.934"/>
</g>
</g>
</svg>
