<?xml version="1.0" encoding="UTF-8" standalone="no"?>
<!DOCTYPE svg PUBLIC "-//W3C//DTD SVG 1.1//EN"
 "http://www.w3.org/Graphics/SVG/1.1/DTD/svg11.dtd">
<!-- Generated by graphviz version 2.38.0 (20140413.2041)
 -->
<!-- Title: Import visualisation Pages: 1 -->
<svg width="314pt" height="244pt"
 viewBox="0.00 0.00 314.00 244.00" xmlns="http://www.w3.org/2000/svg" xmlns:xlink="http://www.w3.org/1999/xlink">
<g id="graph0" class="graph" transform="scale(1 1) rotate(0) translate(4 240)">
<title>Import visualisation</title>
<polygon fill="white" stroke="none" points="-4,4 -4,-240 310,-240 310,4 -4,4"/>
<g id="clust1" class="cluster"><title>cluster_MAVLinkHS</title>
<polygon fill="lavender" stroke="black" points="8,-8 8,-192 298,-192 298,-8 8,-8"/>
<text text-anchor="middle" x="153" y="-176.8" font-family="Times,serif" font-size="14.00">MAVLinkHS</text>
</g>
<g id="clust2" class="cluster"><title>cluster_Messages</title>
<polygon fill="snow" stroke="black" points="110,-16 110,-162 290,-162 290,-16 110,-16"/>
<text text-anchor="middle" x="200" y="-146.8" font-family="Times,serif" font-size="14.00">Messages</text>
</g>
<!-- 2 -->
<g id="node1" class="node"><title>2</title>
<polygon fill="goldenrod" stroke="black" points="234.245,-132 131.755,-132 131.755,-136 119.755,-136 119.755,-96 234.245,-96 234.245,-132"/>
<polyline fill="none" stroke="black" points="119.755,-132 131.755,-132 "/>
<text text-anchor="middle" x="177" y="-109.8" font-family="Times,serif" font-size="14.00">HeartBeat</text>
</g>
<!-- 3 -->
<g id="node2" class="node"><title>3</title>
<polygon fill="goldenrod" stroke="black" points="282.292,-60 129.708,-60 129.708,-64 117.708,-64 117.708,-24 282.292,-24 282.292,-60"/>
<polyline fill="none" stroke="black" points="117.708,-60 129.708,-60 "/>
<text text-anchor="middle" x="200" y="-37.8" font-family="Times,serif" font-size="14.00">MAVLinkMessage</text>
</g>
<!-- 2&#45;&gt;3 -->
<g id="edge1" class="edge"><title>2&#45;&gt;3</title>
<path fill="none" stroke="black" d="M182.685,-95.6966C185.248,-87.8979 188.333,-78.5085 191.185,-69.8292"/>
<polygon fill="black" stroke="black" points="194.584,-70.6972 194.38,-60.1043 187.933,-68.5121 194.584,-70.6972"/>
</g>
<!-- 1 -->
<g id="node3" class="node"><title>1</title>
<polygon fill="goldenrod" stroke="black" points="102.014,-132 27.9863,-132 27.9863,-136 15.9863,-136 15.9863,-96 102.014,-96 102.014,-132"/>
<polyline fill="none" stroke="black" points="15.9863,-132 27.9863,-132 "/>
<text text-anchor="middle" x="59" y="-109.8" font-family="Times,serif" font-size="14.00">CRC</text>
</g>
<!-- 4 -->
<g id="node4" class="node"><title>4</title>
<polygon fill="crimson" stroke="black" points="220.553,-236 145.447,-236 145.447,-240 133.447,-240 133.447,-200 220.553,-200 220.553,-236"/>
<polyline fill="none" stroke="black" points="133.447,-236 145.447,-236 "/>
<text text-anchor="middle" x="177" y="-213.8" font-family="Times,serif" font-size="14.00">Main</text>
</g>
<!-- 4&#45;&gt;2 -->
<g id="edge3" class="edge"><title>4&#45;&gt;2</title>
<path fill="none" stroke="black" d="M177,-199.697C177,-183.923 177,-160.364 177,-142.094"/>
<polygon fill="black" stroke="black" points="180.5,-142.047 177,-132.047 173.5,-142.047 180.5,-142.047"/>
</g>
<!-- 4&#45;&gt;3 -->
<g id="edge4" class="edge"><title>4&#45;&gt;3</title>
<path fill="none" stroke="black" d="M220.816,-208.812C229.532,-205.118 237.639,-199.763 243,-192 267.245,-156.891 257.261,-136.213 243,-96 239.338,-85.6754 232.713,-75.8956 225.743,-67.6136"/>
<polygon fill="black" stroke="black" points="228.33,-65.2561 219.039,-60.1633 223.126,-69.9382 228.33,-65.2561"/>
</g>
<!-- 4&#45;&gt;1 -->
<g id="edge2" class="edge"><title>4&#45;&gt;1</title>
<path fill="none" stroke="black" d="M133.247,-206.852C123.607,-203.241 113.922,-198.415 106,-192 89.5171,-178.653 77.3207,-157.88 69.4883,-141.272"/>
<polygon fill="black" stroke="black" points="72.6509,-139.77 65.3815,-132.063 66.2577,-142.621 72.6509,-139.77"/>
</g>
</g>
</svg>
