<?xml version="1.0" encoding="UTF-8" standalone="no"?>
<!DOCTYPE svg PUBLIC "-//W3C//DTD SVG 1.1//EN"
 "http://www.w3.org/Graphics/SVG/1.1/DTD/svg11.dtd">
<!-- Generated by graphviz version 2.38.0 (20140413.2041)
 -->
<!-- Title: Levels within Main Pages: 1 -->
<svg width="285pt" height="324pt"
 viewBox="0.00 0.00 285.00 324.00" xmlns="http://www.w3.org/2000/svg" xmlns:xlink="http://www.w3.org/1999/xlink">
<g id="graph0" class="graph" transform="scale(1 1) rotate(0) translate(4 320)">
<title>Levels within Main</title>
<polygon fill="white" stroke="none" points="-4,4 -4,-320 281,-320 281,4 -4,4"/>
<g id="clust1" class="cluster"><title>cluster_0</title>
<polygon fill="lavender" stroke="black" points="132,-234 132,-308 269,-308 269,-234 132,-234"/>
<text text-anchor="middle" x="200.5" y="-292.8" font-family="Times,serif" font-size="14.00">Exported root entities</text>
</g>
<g id="clust2" class="cluster"><title>cluster_1</title>
<polygon fill="lavender" stroke="black" points="8,-8 8,-226 235,-226 235,-8 8,-8"/>
<text text-anchor="middle" x="121.5" y="-210.8" font-family="Times,serif" font-size="14.00">Level = 1</text>
</g>
<!-- 1 -->
<g id="node1" class="node"><title>1</title>
<polygon fill="gold" stroke="black" stroke-width="2" points="239.993,-278 154.007,-278 154.007,-242 239.993,-242 239.993,-278"/>
<text text-anchor="middle" x="197" y="-255.8" font-family="Times,serif" font-size="14.00">main</text>
</g>
<!-- 2 -->
<g id="node2" class="node"><title>2</title>
<polygon fill="bisque" stroke="black" stroke-width="2" points="150.473,-196 15.5273,-196 15.5273,-160 150.473,-160 150.473,-196"/>
<text text-anchor="middle" x="83" y="-173.8" font-family="Times,serif" font-size="14.00">serializedChk</text>
</g>
<!-- 1&#45;&gt;2 -->
<g id="edge1" class="edge"><title>1&#45;&gt;2</title>
<path fill="none" stroke="black" d="M172.544,-241.838C156.014,-230.238 133.993,-214.785 115.926,-202.106"/>
<polygon fill="black" stroke="black" points="117.612,-199.013 107.415,-196.134 113.59,-204.743 117.612,-199.013"/>
</g>
<!-- 3 -->
<g id="node3" class="node"><title>3</title>
<polygon fill="bisque" stroke="black" stroke-width="2" points="187.583,-124 56.417,-124 56.417,-88 187.583,-88 187.583,-124"/>
<text text-anchor="middle" x="122" y="-101.8" font-family="Times,serif" font-size="14.00">serializedHB</text>
</g>
<!-- 1&#45;&gt;3 -->
<g id="edge2" class="edge"><title>1&#45;&gt;3</title>
<path fill="none" stroke="black" stroke-width="1.69315" d="M191.871,-241.992C185.475,-221.824 173.587,-187.482 159,-160 154.08,-150.731 147.817,-141.161 141.849,-132.748"/>
<polygon fill="black" stroke="black" stroke-width="1.69315" points="144.525,-130.477 135.805,-124.459 138.869,-134.601 144.525,-130.477"/>
</g>
<!-- 4 -->
<g id="node4" class="node"><title>4</title>
<polygon fill="cyan" stroke="black" stroke-width="2" points="107.942,-52 16.0575,-52 16.0575,-16 107.942,-16 107.942,-52"/>
<text text-anchor="middle" x="62" y="-29.8" font-family="Times,serif" font-size="14.00">testhb</text>
</g>
<!-- 1&#45;&gt;4 -->
<g id="edge3" class="edge"><title>1&#45;&gt;4</title>
<path fill="none" stroke="black" stroke-width="1.69315" d="M202.786,-241.887C212.8,-208.873 229.358,-135.465 197,-88 192.074,-80.7736 152.73,-65.78 117.779,-53.5786"/>
<polygon fill="black" stroke="black" stroke-width="1.69315" points="118.664,-50.1814 108.07,-50.2199 116.376,-56.7968 118.664,-50.1814"/>
</g>
<!-- 5 -->
<g id="node5" class="node"><title>5</title>
<polygon fill="cyan" stroke="black" stroke-width="2" points="226.546,-52 125.454,-52 125.454,-16 226.546,-16 226.546,-52"/>
<text text-anchor="middle" x="176" y="-29.8" font-family="Times,serif" font-size="14.00">teststart</text>
</g>
<!-- 1&#45;&gt;5 -->
<g id="edge4" class="edge"><title>1&#45;&gt;5</title>
<path fill="none" stroke="black" d="M219.169,-241.792C223.573,-237.183 227.582,-231.839 230,-226 253.471,-169.335 253.736,-144.554 230,-88 225.36,-76.9454 217.166,-67.0368 208.54,-58.862"/>
<polygon fill="black" stroke="black" points="210.74,-56.1355 200.928,-52.1392 206.107,-61.3823 210.74,-56.1355"/>
</g>
<!-- 2&#45;&gt;3 -->
<g id="edge5" class="edge"><title>2&#45;&gt;3</title>
<path fill="none" stroke="black" d="M92.6405,-159.697C97.1271,-151.644 102.559,-141.894 107.524,-132.982"/>
<polygon fill="black" stroke="black" points="110.661,-134.544 112.47,-124.104 104.546,-131.137 110.661,-134.544"/>
</g>
<!-- 2&#45;&gt;4 -->
<g id="edge6" class="edge"><title>2&#45;&gt;4</title>
<path fill="none" stroke="black" d="M67.3901,-159.774C59.6271,-150.03 51.0541,-137.184 47,-124 40.6952,-103.497 45.4226,-79.4721 51.1862,-61.5547"/>
<polygon fill="black" stroke="black" points="54.5173,-62.6323 54.5273,-52.0374 47.9125,-60.3136 54.5173,-62.6323"/>
</g>
<!-- 3&#45;&gt;4 -->
<g id="edge7" class="edge"><title>3&#45;&gt;4</title>
<path fill="none" stroke="black" d="M107.169,-87.6966C99.9753,-79.3046 91.2033,-69.0705 83.3097,-59.8613"/>
<polygon fill="black" stroke="black" points="85.8262,-57.4191 76.6609,-52.1043 80.5114,-61.9747 85.8262,-57.4191"/>
</g>
<!-- 3&#45;&gt;5 -->
<g id="edge8" class="edge"><title>3&#45;&gt;5</title>
<path fill="none" stroke="black" d="M135.348,-87.6966C141.757,-79.3893 149.558,-69.2771 156.606,-60.1407"/>
<polygon fill="black" stroke="black" points="159.468,-62.16 162.805,-52.1043 153.926,-57.8844 159.468,-62.16"/>
</g>
</g>
</svg>
