<?xml version="1.0" encoding="UTF-8" standalone="no"?>
<!DOCTYPE svg PUBLIC "-//W3C//DTD SVG 1.1//EN"
 "http://www.w3.org/Graphics/SVG/1.1/DTD/svg11.dtd">
<!-- Generated by graphviz version 2.38.0 (20140413.2041)
 -->
<!-- Title: Diagram of: Main Pages: 1 -->
<svg width="255pt" height="260pt"
 viewBox="0.00 0.00 255.49 260.00" xmlns="http://www.w3.org/2000/svg" xmlns:xlink="http://www.w3.org/1999/xlink">
<g id="graph0" class="graph" transform="scale(1 1) rotate(0) translate(4 256)">
<title>Diagram of: Main</title>
<polygon fill="white" stroke="none" points="-4,4 -4,-256 251.493,-256 251.493,4 -4,4"/>
<!-- 1 -->
<g id="node1" class="node"><title>1</title>
<polygon fill="gold" stroke="black" stroke-width="2" points="190.714,-252 104.728,-252 104.728,-216 190.714,-216 190.714,-252"/>
<text text-anchor="middle" x="147.721" y="-229.8" font-family="Times,serif" font-size="14.00">main</text>
</g>
<!-- 2 -->
<g id="node2" class="node"><title>2</title>
<polygon fill="bisque" stroke="black" stroke-width="2" points="168.193,-180 33.248,-180 33.248,-144 168.193,-144 168.193,-180"/>
<text text-anchor="middle" x="100.721" y="-157.8" font-family="Times,serif" font-size="14.00">serializedChk</text>
</g>
<!-- 1&#45;&gt;2 -->
<g id="edge1" class="edge"><title>1&#45;&gt;2</title>
<path fill="none" stroke="black" d="M136.103,-215.697C130.582,-207.474 123.874,-197.483 117.789,-188.421"/>
<polygon fill="black" stroke="black" points="120.685,-186.456 112.205,-180.104 114.874,-190.358 120.685,-186.456"/>
</g>
<!-- 3 -->
<g id="node3" class="node"><title>3</title>
<polygon fill="bisque" stroke="black" stroke-width="2" points="205.304,-108 74.1377,-108 74.1377,-72 205.304,-72 205.304,-108"/>
<text text-anchor="middle" x="139.721" y="-85.8" font-family="Times,serif" font-size="14.00">serializedHB</text>
</g>
<!-- 1&#45;&gt;3 -->
<g id="edge2" class="edge"><title>1&#45;&gt;3</title>
<path fill="none" stroke="black" stroke-width="1.69315" d="M160.028,-215.784C166.37,-205.843 173.447,-192.804 176.721,-180 180.684,-164.499 181.521,-159.263 176.721,-144 173.622,-134.148 167.97,-124.53 162,-116.251"/>
<polygon fill="black" stroke="black" stroke-width="1.69315" points="164.635,-113.937 155.758,-108.154 159.091,-118.211 164.635,-113.937"/>
</g>
<!-- 4 -->
<g id="node4" class="node"><title>4</title>
<polygon fill="cyan" stroke="black" stroke-width="2" points="91.6632,-36 -0.221774,-36 -0.221774,-0 91.6632,-0 91.6632,-36"/>
<text text-anchor="middle" x="45.7207" y="-13.8" font-family="Times,serif" font-size="14.00">testhb</text>
</g>
<!-- 1&#45;&gt;4 -->
<g id="edge3" class="edge"><title>1&#45;&gt;4</title>
<path fill="none" stroke="black" stroke-width="1.69315" d="M104.655,-226.685C76.723,-220.113 42.3586,-206.806 24.7207,-180 -2.21447,-139.064 17.1153,-79.4833 32.2969,-45.456"/>
<polygon fill="black" stroke="black" stroke-width="1.69315" points="35.5732,-46.7115 36.6231,-36.1688 29.2278,-43.7557 35.5732,-46.7115"/>
</g>
<!-- 5 -->
<g id="node5" class="node"><title>5</title>
<polygon fill="cyan" stroke="black" stroke-width="2" points="247.267,-36 146.175,-36 146.175,-0 247.267,-0 247.267,-36"/>
<text text-anchor="middle" x="196.721" y="-13.8" font-family="Times,serif" font-size="14.00">teststart</text>
</g>
<!-- 1&#45;&gt;5 -->
<g id="edge4" class="edge"><title>1&#45;&gt;5</title>
<path fill="none" stroke="black" d="M165.549,-215.734C174.759,-205.979 185.542,-193.134 192.721,-180 208.77,-150.64 209.778,-141.093 214.721,-108 217.084,-92.1756 217.328,-87.7861 214.721,-72 213.28,-63.2752 210.589,-54.0563 207.718,-45.7969"/>
<polygon fill="black" stroke="black" points="210.955,-44.4583 204.2,-36.2958 204.391,-46.889 210.955,-44.4583"/>
</g>
<!-- 2&#45;&gt;3 -->
<g id="edge5" class="edge"><title>2&#45;&gt;3</title>
<path fill="none" stroke="black" d="M110.361,-143.697C114.848,-135.644 120.279,-125.894 125.245,-116.982"/>
<polygon fill="black" stroke="black" points="128.382,-118.544 130.191,-108.104 122.267,-115.137 128.382,-118.544"/>
</g>
<!-- 2&#45;&gt;4 -->
<g id="edge6" class="edge"><title>2&#45;&gt;4</title>
<path fill="none" stroke="black" d="M86.556,-143.851C79.0305,-133.93 70.2236,-120.89 64.7207,-108 56.3075,-88.2932 51.476,-64.4881 48.7924,-46.4579"/>
<polygon fill="black" stroke="black" points="52.2304,-45.7643 47.4179,-36.3255 45.294,-46.7052 52.2304,-45.7643"/>
</g>
<!-- 3&#45;&gt;4 -->
<g id="edge7" class="edge"><title>3&#45;&gt;4</title>
<path fill="none" stroke="black" d="M116.485,-71.6966C104.532,-62.796 89.7976,-51.8232 76.8735,-42.1989"/>
<polygon fill="black" stroke="black" points="78.8003,-39.2699 68.6894,-36.1043 74.6194,-44.8842 78.8003,-39.2699"/>
</g>
<!-- 3&#45;&gt;5 -->
<g id="edge8" class="edge"><title>3&#45;&gt;5</title>
<path fill="none" stroke="black" d="M153.811,-71.6966C160.644,-63.3046 168.978,-53.0705 176.476,-43.8613"/>
<polygon fill="black" stroke="black" points="179.193,-46.0687 182.793,-36.1043 173.765,-41.6487 179.193,-46.0687"/>
</g>
</g>
</svg>
