<?xml version="1.0" encoding="UTF-8" standalone="no"?>
<!DOCTYPE svg PUBLIC "-//W3C//DTD SVG 1.1//EN"
 "http://www.w3.org/Graphics/SVG/1.1/DTD/svg11.dtd">
<!-- Generated by graphviz version 2.38.0 (20140413.2041)
 -->
<!-- Title: Diagram of: MAVLinkHS.Messages.MAVLinkMessage Pages: 1 -->
<svg width="378pt" height="113pt"
 viewBox="0.00 0.00 378.00 112.86" xmlns="http://www.w3.org/2000/svg" xmlns:xlink="http://www.w3.org/1999/xlink">
<g id="graph0" class="graph" transform="scale(1 1) rotate(0) translate(4 108.861)">
<title>Diagram of: MAVLinkHS.Messages.MAVLinkMessage</title>
<polygon fill="white" stroke="none" points="-4,4 -4,-108.861 374,-108.861 374,4 -4,4"/>
<g id="clust1" class="cluster"><title>cluster_Class_MAVLinkMessage</title>
<path fill="#ffc1c1" stroke="black" d="M20,-8C20,-8 350,-8 350,-8 356,-8 362,-14 362,-20 362,-20 362,-84.8605 362,-84.8605 362,-90.8605 356,-96.8605 350,-96.8605 350,-96.8605 20,-96.8605 20,-96.8605 14,-96.8605 8,-90.8605 8,-84.8605 8,-84.8605 8,-20 8,-20 8,-14 14,-8 20,-8"/>
<text text-anchor="middle" x="185" y="-81.6605" font-family="Times,serif" font-size="14.00">Class: MAVLinkMessage</text>
</g>
<!-- 1 -->
<g id="node1" class="node"><title>1</title>
<polygon fill="gold" stroke="black" stroke-width="2" points="349.842,-32.5778 349.842,-50.2827 302.486,-62.8019 235.514,-62.8019 188.158,-50.2827 188.158,-32.5778 235.514,-20.0586 302.486,-20.0586 349.842,-32.5778"/>
<polygon fill="none" stroke="black" stroke-width="2" points="353.851,-29.5101 353.851,-53.3505 303.009,-66.791 234.991,-66.791 184.149,-53.3505 184.149,-29.5101 234.991,-16.0695 303.009,-16.0695 353.851,-29.5101"/>
<text text-anchor="middle" x="269" y="-37.2303" font-family="Times,serif" font-size="14.00">crcExtra</text>
</g>
<!-- 2 -->
<g id="node2" class="node"><title>2</title>
<polygon fill="gold" stroke="black" stroke-width="2" points="162.339,-32.5778 162.339,-50.2827 120.55,-62.8019 61.4505,-62.8019 19.6611,-50.2827 19.6611,-32.5778 61.4505,-20.0586 120.55,-20.0586 162.339,-32.5778"/>
<polygon fill="none" stroke="black" stroke-width="2" points="166.348,-29.613 166.348,-53.2476 121.14,-66.791 60.86,-66.791 15.6518,-53.2476 15.6518,-29.613 60.86,-16.0695 121.14,-16.0695 166.348,-29.613"/>
<text text-anchor="middle" x="91" y="-37.2303" font-family="Times,serif" font-size="14.00">length</text>
</g>
</g>
</svg>
