<?xml version="1.0" encoding="UTF-8" standalone="no"?>
<!DOCTYPE svg PUBLIC "-//W3C//DTD SVG 1.1//EN"
 "http://www.w3.org/Graphics/SVG/1.1/DTD/svg11.dtd">
<!-- Generated by graphviz version 2.38.0 (20140413.2041)
 -->
<!-- Title: Levels within MAVLinkHS.CRC Pages: 1 -->
<svg width="415pt" height="334pt"
 viewBox="0.00 0.00 415.00 334.00" xmlns="http://www.w3.org/2000/svg" xmlns:xlink="http://www.w3.org/1999/xlink">
<g id="graph0" class="graph" transform="scale(1 1) rotate(0) translate(4 330)">
<title>Levels within MAVLinkHS.CRC</title>
<polygon fill="white" stroke="none" points="-4,4 -4,-330 411,-330 411,4 -4,4"/>
<g id="clust1" class="cluster"><title>cluster_0</title>
<polygon fill="lavender" stroke="black" points="154,-172 154,-318 328,-318 328,-172 154,-172"/>
<text text-anchor="middle" x="241" y="-302.8" font-family="Times,serif" font-size="14.00">Exported root entities</text>
</g>
<g id="clust2" class="cluster"><title>cluster_1</title>
<polygon fill="lavender" stroke="black" points="104,-90 104,-164 399,-164 399,-90 104,-90"/>
<text text-anchor="middle" x="251.5" y="-148.8" font-family="Times,serif" font-size="14.00">Level = 1</text>
</g>
<g id="clust3" class="cluster"><title>cluster_2</title>
<polygon fill="lavender" stroke="black" points="8,-8 8,-82 381,-82 381,-8 8,-8"/>
<text text-anchor="middle" x="194.5" y="-66.8" font-family="Times,serif" font-size="14.00">Level = 2</text>
</g>
<!-- 2 -->
<g id="node1" class="node"><title>2</title>
<polygon fill="goldenrod" stroke="black" stroke-width="2" points="304.952,-216 177.048,-216 177.048,-180 304.952,-180 304.952,-216"/>
<text text-anchor="middle" x="241" y="-193.8" font-family="Times,serif" font-size="14.00">crcCalculate</text>
</g>
<!-- 1 -->
<g id="node3" class="node"><title>1</title>
<polygon fill="bisque" stroke="black" stroke-width="2" points="391.225,-134 248.775,-134 248.775,-98 391.225,-98 391.225,-134"/>
<text text-anchor="middle" x="320" y="-111.8" font-family="Times,serif" font-size="14.00">crcAccumulate</text>
</g>
<!-- 2&#45;&gt;1 -->
<g id="edge2" class="edge"><title>2&#45;&gt;1</title>
<path fill="none" stroke="black" d="M258.142,-179.641C269.19,-168.453 283.719,-153.74 295.919,-141.386"/>
<polygon fill="black" stroke="black" points="298.627,-143.625 303.163,-134.05 293.646,-138.706 298.627,-143.625"/>
</g>
<!-- 6 -->
<g id="node4" class="node"><title>6</title>
<polygon fill="bisque" stroke="black" stroke-width="2" points="230.163,-134 111.837,-134 111.837,-98 230.163,-98 230.163,-134"/>
<text text-anchor="middle" x="171" y="-111.8" font-family="Times,serif" font-size="14.00">swapBytes</text>
</g>
<!-- 2&#45;&gt;6 -->
<g id="edge3" class="edge"><title>2&#45;&gt;6</title>
<path fill="none" stroke="black" d="M225.811,-179.641C216.114,-168.558 203.39,-154.018 192.644,-141.736"/>
<polygon fill="black" stroke="black" points="195.138,-139.271 185.919,-134.05 189.87,-143.881 195.138,-139.271"/>
</g>
<!-- 3 -->
<g id="node2" class="node"><title>3</title>
<polygon fill="gold" stroke="black" stroke-width="2" points="320.27,-288 161.73,-288 161.73,-252 320.27,-252 320.27,-288"/>
<text text-anchor="middle" x="241" y="-265.8" font-family="Times,serif" font-size="14.00">crcCalculateExtra</text>
</g>
<!-- 3&#45;&gt;2 -->
<g id="edge4" class="edge"><title>3&#45;&gt;2</title>
<path fill="none" stroke="chartreuse" d="M241,-251.697C241,-243.983 241,-234.712 241,-226.112"/>
<polygon fill="chartreuse" stroke="chartreuse" points="244.5,-226.104 241,-216.104 237.5,-226.104 244.5,-226.104"/>
</g>
<!-- 7 -->
<g id="node7" class="node"><title>7</title>
<polygon fill="cyan" stroke="black" stroke-width="2" points="373.152,-52 266.848,-52 266.848,-16 373.152,-16 373.152,-52"/>
<text text-anchor="middle" x="320" y="-29.8" font-family="Times,serif" font-size="14.00">toWord8</text>
</g>
<!-- 1&#45;&gt;7 -->
<g id="edge1" class="edge"><title>1&#45;&gt;7</title>
<path fill="none" stroke="chartreuse" d="M320,-97.6412C320,-87.2971 320,-73.941 320,-62.2206"/>
<polygon fill="chartreuse" stroke="chartreuse" points="323.5,-62.0501 320,-52.0501 316.5,-62.0501 323.5,-62.0501"/>
</g>
<!-- 4 -->
<g id="node5" class="node"><title>4</title>
<polygon fill="cyan" stroke="black" stroke-width="2" points="248.832,-52 139.168,-52 139.168,-16 248.832,-16 248.832,-52"/>
<text text-anchor="middle" x="194" y="-29.8" font-family="Times,serif" font-size="14.00">highByte</text>
</g>
<!-- 6&#45;&gt;4 -->
<g id="edge5" class="edge"><title>6&#45;&gt;4</title>
<path fill="none" stroke="black" d="M175.991,-97.6412C178.995,-87.1916 182.883,-73.6682 186.277,-61.8623"/>
<polygon fill="black" stroke="black" points="189.699,-62.6279 189.098,-52.0501 182.971,-60.6937 189.699,-62.6279"/>
</g>
<!-- 5 -->
<g id="node6" class="node"><title>5</title>
<polygon fill="cyan" stroke="black" stroke-width="2" points="121.942,-52 16.0577,-52 16.0577,-16 121.942,-16 121.942,-52"/>
<text text-anchor="middle" x="69" y="-29.8" font-family="Times,serif" font-size="14.00">lowByte</text>
</g>
<!-- 6&#45;&gt;5 -->
<g id="edge6" class="edge"><title>6&#45;&gt;5</title>
<path fill="none" stroke="black" d="M149.118,-97.838C134.463,-86.3436 114.984,-71.0655 98.9018,-58.4524"/>
<polygon fill="black" stroke="black" points="100.874,-55.5511 90.8454,-52.1336 96.5539,-61.0591 100.874,-55.5511"/>
</g>
</g>
</svg>
