<?xml version="1.0" encoding="UTF-8" standalone="no"?>
<!DOCTYPE svg PUBLIC "-//W3C//DTD SVG 1.1//EN"
 "http://www.w3.org/Graphics/SVG/1.1/DTD/svg11.dtd">
<!-- Generated by graphviz version 2.38.0 (20140413.2041)
 -->
<!-- Title: Levels within MAVLinkHS.Messages.HeartBeat Pages: 1 -->
<svg width="1255pt" height="223pt"
 viewBox="0.00 0.00 1255.00 223.15" xmlns="http://www.w3.org/2000/svg" xmlns:xlink="http://www.w3.org/1999/xlink">
<g id="graph0" class="graph" transform="scale(1 1) rotate(0) translate(4 219.151)">
<title>Levels within MAVLinkHS.Messages.HeartBeat</title>
<polygon fill="white" stroke="none" points="-4,4 -4,-219.151 1251,-219.151 1251,4 -4,4"/>
<g id="clust1" class="cluster"><title>cluster_0</title>
<polygon fill="lavender" stroke="black" points="8,-96.8605 8,-207.151 1239,-207.151 1239,-96.8605 8,-96.8605"/>
<text text-anchor="middle" x="623.5" y="-191.951" font-family="Times,serif" font-size="14.00">Exported root entities</text>
</g>
<g id="clust2" class="cluster"><title>cluster_1</title>
<polygon fill="lavender" stroke="black" points="13,-8 13,-88.8605 858,-88.8605 858,-8 13,-8"/>
<text text-anchor="middle" x="435.5" y="-73.6605" font-family="Times,serif" font-size="14.00">Level = 1</text>
</g>
<!-- 1 -->
<g id="node1" class="node"><title>1</title>
<polygon fill="goldenrod" stroke="black" stroke-width="2" points="1231.06,-159.006 1086.94,-159.006 1082.94,-155.006 1082.94,-123.006 1227.06,-123.006 1231.06,-127.006 1231.06,-159.006"/>
<polyline fill="none" stroke="black" stroke-width="2" points="1227.06,-155.006 1082.94,-155.006 "/>
<polyline fill="none" stroke="black" stroke-width="2" points="1227.06,-155.006 1227.06,-123.006 "/>
<polyline fill="none" stroke="black" stroke-width="2" points="1227.06,-155.006 1231.06,-159.006 "/>
<text text-anchor="middle" x="1157" y="-136.806" font-family="Times,serif" font-size="14.00">Data: HeartBeat</text>
</g>
<!-- 7 -->
<g id="node2" class="node"><title>7</title>
<polygon fill="gold" stroke="black" stroke-width="2" points="1064.65,-159.006 925.351,-159.006 925.351,-123.006 1064.65,-123.006 1064.65,-159.006"/>
<text text-anchor="middle" x="995" y="-136.806" font-family="Times,serif" font-size="14.00">heartBeatCRC</text>
</g>
<!-- 8 -->
<g id="node3" class="node"><title>8</title>
<polygon fill="gold" stroke="black" stroke-width="2" points="906.901,-159.006 773.099,-159.006 773.099,-123.006 906.901,-123.006 906.901,-159.006"/>
<text text-anchor="middle" x="840" y="-136.806" font-family="Times,serif" font-size="14.00">heartBeatLen</text>
</g>
<!-- 14 -->
<g id="node4" class="node"><title>14</title>
<polygon fill="khaki" stroke="black" points="480.145,-127.637 480.145,-154.375 345.329,-173.281 154.671,-173.281 19.8551,-154.375 19.8551,-127.637 154.671,-108.731 345.329,-108.731 480.145,-127.637"/>
<polygon fill="none" stroke="black" points="484.142,-124.143 484.142,-157.869 345.607,-177.297 154.393,-177.297 15.8581,-157.869 15.8581,-124.143 154.393,-104.715 345.607,-104.715 484.142,-124.143"/>
<text text-anchor="middle" x="250" y="-143.806" font-family="Times,serif" font-size="14.00">MAVLinkHS.Messages.MAVLinkMessage</text>
<text text-anchor="middle" x="250" y="-129.806" font-family="Times,serif" font-size="14.00">Class: MAVLinkMessage</text>
</g>
<!-- 4 -->
<g id="node6" class="node"><title>4</title>
<polygon fill="cyan" stroke="black" stroke-width="2" points="479.081,-28.5824 479.081,-46.2782 344.888,-58.791 155.112,-58.791 20.9195,-46.2782 20.9195,-28.5824 155.112,-16.0695 344.888,-16.0695 479.081,-28.5824"/>
<text text-anchor="middle" x="250" y="-33.2303" font-family="Times,serif" font-size="14.00">Class: MAVLinkMessage, Data: HeartBeat</text>
</g>
<!-- 14&#45;&gt;4 -->
<g id="edge2" class="edge"><title>14&#45;&gt;4</title>
<path fill="none" stroke="navy" stroke-width="1.69315" d="M250,-104.765C250,-89.4084 250,-71.9535 250,-58.8043"/>
</g>
<!-- 16 -->
<g id="node5" class="node"><title>16</title>
<polygon fill="khaki" stroke="black" stroke-dasharray="1,5" points="751.829,-127.637 751.829,-154.375 679.878,-173.281 578.122,-173.281 506.171,-154.375 506.171,-127.637 578.122,-108.731 679.878,-108.731 751.829,-127.637"/>
<polygon fill="none" stroke="black" stroke-dasharray="1,5" points="755.835,-124.538 755.835,-157.474 680.394,-177.297 577.606,-177.297 502.165,-157.474 502.165,-124.538 577.606,-104.715 680.394,-104.715 755.835,-124.538"/>
<text text-anchor="middle" x="629" y="-143.806" font-family="Times,serif" font-size="14.00">Unknown Module</text>
<text text-anchor="middle" x="629" y="-129.806" font-family="Times,serif" font-size="14.00">Class: Binary</text>
</g>
<!-- 6 -->
<g id="node7" class="node"><title>6</title>
<polygon fill="bisque" stroke="black" stroke-width="2" points="850.31,-28.5824 850.31,-46.2782 747.03,-58.791 600.97,-58.791 497.69,-46.2782 497.69,-28.5824 600.97,-16.0695 747.03,-16.0695 850.31,-28.5824"/>
<text text-anchor="middle" x="674" y="-33.2303" font-family="Times,serif" font-size="14.00">Class: Binary, Data: HeartBeat</text>
</g>
<!-- 16&#45;&gt;6 -->
<g id="edge3" class="edge"><title>16&#45;&gt;6</title>
<path fill="none" stroke="navy" stroke-width="1.69315" d="M644.613,-104.765C651.416,-89.4084 659.149,-71.9535 664.974,-58.8043"/>
</g>
<!-- 6&#45;&gt;1 -->
<g id="edge1" class="edge"><title>6&#45;&gt;1</title>
<path fill="none" stroke="chartreuse" stroke-width="2.94591" d="M829.165,-48.9381C904.433,-57.0822 995.356,-71.4766 1074,-96.8605 1089.97,-102.017 1106.58,-110.042 1120.7,-117.78"/>
<polygon fill="chartreuse" stroke="chartreuse" stroke-width="2.94591" points="1119.16,-120.93 1129.59,-122.79 1122.6,-114.832 1119.16,-120.93"/>
</g>
</g>
</svg>
