<?xml version="1.0" encoding="UTF-8" standalone="no"?>
<!DOCTYPE svg PUBLIC "-//W3C//DTD SVG 1.1//EN"
 "http://www.w3.org/Graphics/SVG/1.1/DTD/svg11.dtd">
<!-- Generated by graphviz version 2.38.0 (20140413.2041)
 -->
<!-- Title: Diagram of: MAVLinkHS.Messages.HeartBeat Pages: 1 -->
<svg width="1838pt" height="377pt"
 viewBox="0.00 0.00 1837.70 377.15" xmlns="http://www.w3.org/2000/svg" xmlns:xlink="http://www.w3.org/1999/xlink">
<g id="graph0" class="graph" transform="scale(1 1) rotate(0) translate(4 373.151)">
<title>Diagram of: MAVLinkHS.Messages.HeartBeat</title>
<polygon fill="white" stroke="none" points="-4,4 -4,-373.151 1833.7,-373.151 1833.7,4 -4,4"/>
<g id="clust1" class="cluster"><title>cluster_Class_Binary</title>
<path fill="#ffc1c1" stroke="black" d="M20,-162C20,-162 537,-162 537,-162 543,-162 549,-168 549,-174 549,-174 549,-349.151 549,-349.151 549,-355.151 543,-361.151 537,-361.151 537,-361.151 20,-361.151 20,-361.151 14,-361.151 8,-355.151 8,-349.151 8,-349.151 8,-174 8,-174 8,-168 14,-162 20,-162"/>
<text text-anchor="middle" x="278.5" y="-345.951" font-family="Times,serif" font-size="14.00">Class: Binary</text>
</g>
<g id="clust2" class="cluster"><title>cluster_Class_Binary_Data_HeartBeat</title>
<path fill="#c6e2ff" stroke="black" d="M172,-170C172,-170 413,-170 413,-170 419,-170 425,-176 425,-182 425,-182 425,-238.861 425,-238.861 425,-244.861 419,-250.861 413,-250.861 413,-250.861 172,-250.861 172,-250.861 166,-250.861 160,-244.861 160,-238.861 160,-238.861 160,-182 160,-182 160,-176 166,-170 172,-170"/>
<text text-anchor="middle" x="292.5" y="-235.661" font-family="Times,serif" font-size="14.00">Instance for: HeartBeat</text>
</g>
<g id="clust3" class="cluster"><title>cluster_Class_MAVLinkMessage</title>
<path fill="#ffc1c1" stroke="black" d="M569,-162C569,-162 1516,-162 1516,-162 1522,-162 1528,-168 1528,-174 1528,-174 1528,-349.151 1528,-349.151 1528,-355.151 1522,-361.151 1516,-361.151 1516,-361.151 569,-361.151 569,-361.151 563,-361.151 557,-355.151 557,-349.151 557,-349.151 557,-174 557,-174 557,-168 563,-162 569,-162"/>
<text text-anchor="middle" x="1042.5" y="-345.951" font-family="Times,serif" font-size="14.00">Class: MAVLinkMessage</text>
</g>
<g id="clust4" class="cluster"><title>cluster_Class_MAVLinkMessage_Data_HeartBeat</title>
<path fill="#c6e2ff" stroke="black" d="M890,-170C890,-170 1204,-170 1204,-170 1210,-170 1216,-176 1216,-182 1216,-182 1216,-238.861 1216,-238.861 1216,-244.861 1210,-250.861 1204,-250.861 1204,-250.861 890,-250.861 890,-250.861 884,-250.861 878,-244.861 878,-238.861 878,-238.861 878,-182 878,-182 878,-176 884,-170 890,-170"/>
<text text-anchor="middle" x="1047" y="-235.661" font-family="Times,serif" font-size="14.00">Instance for: HeartBeat</text>
</g>
<g id="clust5" class="cluster"><title>cluster_Data_HeartBeat</title>
<path fill="papayawhip" stroke="black" d="M48,-8C48,-8 795,-8 795,-8 801,-8 807,-14 807,-20 807,-20 807,-142 807,-142 807,-148 801,-154 795,-154 795,-154 48,-154 48,-154 42,-154 36,-148 36,-142 36,-142 36,-20 36,-20 36,-14 42,-8 48,-8"/>
<text text-anchor="middle" x="421.5" y="-138.8" font-family="Times,serif" font-size="14.00">Data: HeartBeat</text>
</g>
<!-- 6 -->
<g id="node1" class="node"><title>6</title>
<polygon fill="bisque" stroke="black" stroke-width="2" points="282.463,-190.582 282.463,-208.278 248.802,-220.791 201.198,-220.791 167.537,-208.278 167.537,-190.582 201.198,-178.07 248.802,-178.07 282.463,-190.582"/>
<text text-anchor="middle" x="225" y="-195.23" font-family="Times,serif" font-size="14.00">get</text>
</g>
<!-- 1 -->
<g id="node9" class="node"><title>1</title>
<polygon fill="goldenrod" stroke="black" stroke-width="2" points="416.245,-52 305.755,-52 301.755,-48 301.755,-16 412.245,-16 416.245,-20 416.245,-52"/>
<polyline fill="none" stroke="black" stroke-width="2" points="412.245,-48 301.755,-48 "/>
<polyline fill="none" stroke="black" stroke-width="2" points="412.245,-48 412.245,-16 "/>
<polyline fill="none" stroke="black" stroke-width="2" points="412.245,-48 416.245,-52 "/>
<text text-anchor="middle" x="359" y="-29.8" font-family="Times,serif" font-size="14.00">HeartBeat</text>
</g>
<!-- 6&#45;&gt;1 -->
<g id="edge4" class="edge"><title>6&#45;&gt;1</title>
<path fill="none" stroke="chartreuse" d="M167.231,-192.745C117.526,-186.518 51.3144,-174.57 35,-154 16.772,-131.018 16.0061,-110.353 35,-88 67.2292,-50.0704 206.284,-39.226 291.405,-36.164"/>
<polygon fill="chartreuse" stroke="chartreuse" points="291.629,-39.6586 301.507,-35.8279 291.397,-32.6625 291.629,-39.6586"/>
</g>
<!-- 10 -->
<g id="node2" class="node"><title>10</title>
<polygon fill="bisque" stroke="black" stroke-width="2" points="417.167,-190.582 417.167,-208.278 383.094,-220.791 334.906,-220.791 300.833,-208.278 300.833,-190.582 334.906,-178.07 383.094,-178.07 417.167,-190.582"/>
<text text-anchor="middle" x="359" y="-195.23" font-family="Times,serif" font-size="14.00">put</text>
</g>
<!-- 2 -->
<g id="node10" class="node"><title>2</title>
<polygon fill="goldenrod" stroke="black" stroke-width="2" points="681.773,-124 574.227,-124 574.227,-120 570.227,-120 570.227,-116 574.227,-116 574.227,-96 570.227,-96 570.227,-92 574.227,-92 574.227,-88 681.773,-88 681.773,-124"/>
<polyline fill="none" stroke="black" stroke-width="2" points="574.227,-120 578.227,-120 578.227,-116 574.227,-116 "/>
<polyline fill="none" stroke="black" stroke-width="2" points="574.227,-96 578.227,-96 578.227,-92 574.227,-92 "/>
<text text-anchor="middle" x="628" y="-101.8" font-family="Times,serif" font-size="14.00">autopilot</text>
</g>
<!-- 10&#45;&gt;2 -->
<g id="edge5" class="edge"><title>10&#45;&gt;2</title>
<path fill="none" stroke="black" d="M417.482,-192.575C459.906,-186.74 517.872,-175.425 565,-154 578.067,-148.06 591.032,-139.066 601.773,-130.531"/>
<polygon fill="black" stroke="black" points="604.024,-133.211 609.518,-124.152 599.574,-127.808 604.024,-133.211"/>
</g>
<!-- 3 -->
<g id="node11" class="node"><title>3</title>
<polygon fill="goldenrod" stroke="black" stroke-width="2" points="555.979,-124 442.021,-124 442.021,-120 438.021,-120 438.021,-116 442.021,-116 442.021,-96 438.021,-96 438.021,-92 442.021,-92 442.021,-88 555.979,-88 555.979,-124"/>
<polyline fill="none" stroke="black" stroke-width="2" points="442.021,-120 446.021,-120 446.021,-116 442.021,-116 "/>
<polyline fill="none" stroke="black" stroke-width="2" points="442.021,-96 446.021,-96 446.021,-92 442.021,-92 "/>
<text text-anchor="middle" x="499" y="-101.8" font-family="Times,serif" font-size="14.00">basemode</text>
</g>
<!-- 10&#45;&gt;3 -->
<g id="edge6" class="edge"><title>10&#45;&gt;3</title>
<path fill="none" stroke="black" d="M390.297,-180.371C403.608,-172.503 419.21,-163.03 433,-154 444.422,-146.521 456.669,-137.957 467.475,-130.206"/>
<polygon fill="black" stroke="black" points="469.731,-132.894 475.788,-124.201 465.632,-127.22 469.731,-132.894"/>
</g>
<!-- 5 -->
<g id="node12" class="node"><title>5</title>
<polygon fill="goldenrod" stroke="black" stroke-width="2" points="423.546,-124 294.454,-124 294.454,-120 290.454,-120 290.454,-116 294.454,-116 294.454,-96 290.454,-96 290.454,-92 294.454,-92 294.454,-88 423.546,-88 423.546,-124"/>
<polyline fill="none" stroke="black" stroke-width="2" points="294.454,-120 298.454,-120 298.454,-116 294.454,-116 "/>
<polyline fill="none" stroke="black" stroke-width="2" points="294.454,-96 298.454,-96 298.454,-92 294.454,-92 "/>
<text text-anchor="middle" x="359" y="-101.8" font-family="Times,serif" font-size="14.00">custommode</text>
</g>
<!-- 10&#45;&gt;5 -->
<g id="edge7" class="edge"><title>10&#45;&gt;5</title>
<path fill="none" stroke="black" d="M359,-177.683C359,-164.962 359,-148.519 359,-134.695"/>
<polygon fill="black" stroke="black" points="362.5,-134.29 359,-124.29 355.5,-134.29 362.5,-134.29"/>
</g>
<!-- 11 -->
<g id="node13" class="node"><title>11</title>
<polygon fill="goldenrod" stroke="black" stroke-width="2" points="276.279,-124 147.721,-124 147.721,-120 143.721,-120 143.721,-116 147.721,-116 147.721,-96 143.721,-96 143.721,-92 147.721,-92 147.721,-88 276.279,-88 276.279,-124"/>
<polyline fill="none" stroke="black" stroke-width="2" points="147.721,-120 151.721,-120 151.721,-116 147.721,-116 "/>
<polyline fill="none" stroke="black" stroke-width="2" points="147.721,-96 151.721,-96 151.721,-92 147.721,-92 "/>
<text text-anchor="middle" x="212" y="-101.8" font-family="Times,serif" font-size="14.00">systemstatus</text>
</g>
<!-- 10&#45;&gt;11 -->
<g id="edge8" class="edge"><title>10&#45;&gt;11</title>
<path fill="none" stroke="black" d="M328.266,-180.27C314.913,-172.304 299.125,-162.784 285,-154 272.434,-146.185 258.771,-137.452 246.699,-129.655"/>
<polygon fill="black" stroke="black" points="248.525,-126.667 238.229,-124.169 244.72,-132.543 248.525,-126.667"/>
</g>
<!-- 12 -->
<g id="node14" class="node"><title>12</title>
<polygon fill="goldenrod" stroke="black" stroke-width="2" points="129.993,-124 44.0068,-124 44.0068,-120 40.0068,-120 40.0068,-116 44.0068,-116 44.0068,-96 40.0068,-96 40.0068,-92 44.0068,-92 44.0068,-88 129.993,-88 129.993,-124"/>
<polyline fill="none" stroke="black" stroke-width="2" points="44.0068,-120 48.0068,-120 48.0068,-116 44.0068,-116 "/>
<polyline fill="none" stroke="black" stroke-width="2" points="44.0068,-96 48.0068,-96 48.0068,-92 44.0068,-92 "/>
<text text-anchor="middle" x="87" y="-101.8" font-family="Times,serif" font-size="14.00">typet</text>
</g>
<!-- 10&#45;&gt;12 -->
<g id="edge9" class="edge"><title>10&#45;&gt;12</title>
<path fill="none" stroke="black" d="M330.404,-179.497C318.683,-172.719 304.674,-165.817 291,-162 258.421,-152.906 170.236,-166.977 139,-154 127.179,-149.089 116.294,-140.279 107.57,-131.603"/>
<polygon fill="black" stroke="black" points="109.904,-128.977 100.491,-124.114 104.817,-133.786 109.904,-128.977"/>
</g>
<!-- 13 -->
<g id="node15" class="node"><title>13</title>
<polygon fill="goldenrod" stroke="black" stroke-width="2" points="798.714,-124 699.286,-124 699.286,-120 695.286,-120 695.286,-116 699.286,-116 699.286,-96 695.286,-96 695.286,-92 699.286,-92 699.286,-88 798.714,-88 798.714,-124"/>
<polyline fill="none" stroke="black" stroke-width="2" points="699.286,-120 703.286,-120 703.286,-116 699.286,-116 "/>
<polyline fill="none" stroke="black" stroke-width="2" points="699.286,-96 703.286,-96 703.286,-92 699.286,-92 "/>
<text text-anchor="middle" x="749" y="-101.8" font-family="Times,serif" font-size="14.00">version</text>
</g>
<!-- 10&#45;&gt;13 -->
<g id="edge10" class="edge"><title>10&#45;&gt;13</title>
<path fill="none" stroke="black" d="M417.383,-194.434C499.13,-188.192 643.072,-174.662 691,-154 703.584,-148.575 715.667,-139.614 725.517,-130.962"/>
<polygon fill="black" stroke="black" points="727.915,-133.512 732.904,-124.164 723.175,-128.361 727.915,-133.512"/>
</g>
<!-- 16 -->
<g id="node3" class="node"><title>16</title>
<polygon fill="khaki" stroke="black" stroke-dasharray="1,5" points="265.829,-281.637 265.829,-308.375 193.878,-327.281 92.1224,-327.281 20.1706,-308.375 20.1706,-281.637 92.1224,-262.731 193.878,-262.731 265.829,-281.637"/>
<polygon fill="none" stroke="black" stroke-dasharray="1,5" points="269.835,-278.538 269.835,-311.474 194.394,-331.297 91.6063,-331.297 16.1653,-311.474 16.1653,-278.538 91.6063,-258.715 194.394,-258.715 269.835,-278.538"/>
<text text-anchor="middle" x="143" y="-297.806" font-family="Times,serif" font-size="14.00">Unknown Module</text>
<text text-anchor="middle" x="143" y="-283.806" font-family="Times,serif" font-size="14.00">get</text>
</g>
<!-- 16&#45;&gt;6 -->
<g id="edge16" class="edge"><title>16&#45;&gt;6</title>
<path fill="none" stroke="navy" d="M174.001,-258.629C185.158,-245.897 197.367,-231.965 207.041,-220.924"/>
</g>
<!-- 17 -->
<g id="node4" class="node"><title>17</title>
<polygon fill="khaki" stroke="black" stroke-dasharray="1,5" points="536.829,-281.637 536.829,-308.375 464.878,-327.281 363.122,-327.281 291.171,-308.375 291.171,-281.637 363.122,-262.731 464.878,-262.731 536.829,-281.637"/>
<polygon fill="none" stroke="black" stroke-dasharray="1,5" points="540.835,-278.538 540.835,-311.474 465.394,-331.297 362.606,-331.297 287.165,-311.474 287.165,-278.538 362.606,-258.715 465.394,-258.715 540.835,-278.538"/>
<text text-anchor="middle" x="414" y="-297.806" font-family="Times,serif" font-size="14.00">Unknown Module</text>
<text text-anchor="middle" x="414" y="-283.806" font-family="Times,serif" font-size="14.00">put</text>
</g>
<!-- 17&#45;&gt;10 -->
<g id="edge17" class="edge"><title>17&#45;&gt;10</title>
<path fill="none" stroke="navy" d="M393.207,-258.629C385.724,-245.897 377.535,-231.965 371.046,-220.924"/>
</g>
<!-- 4 -->
<g id="node5" class="node"><title>4</title>
<polygon fill="cyan" stroke="black" stroke-width="2" points="1207.85,-190.582 1207.85,-208.278 1160.49,-220.791 1093.51,-220.791 1046.15,-208.278 1046.15,-190.582 1093.51,-178.07 1160.49,-178.07 1207.85,-190.582"/>
<text text-anchor="middle" x="1127" y="-195.23" font-family="Times,serif" font-size="14.00">crcExtra</text>
</g>
<!-- 9 -->
<g id="node6" class="node"><title>9</title>
<polygon fill="cyan" stroke="black" stroke-width="2" points="1028.35,-190.582 1028.35,-208.278 986.553,-220.791 927.447,-220.791 885.652,-208.278 885.652,-190.582 927.447,-178.07 986.553,-178.07 1028.35,-190.582"/>
<text text-anchor="middle" x="957" y="-195.23" font-family="Times,serif" font-size="14.00">length</text>
</g>
<!-- 14 -->
<g id="node7" class="node"><title>14</title>
<polygon fill="khaki" stroke="black" points="1516.14,-281.637 1516.14,-308.375 1381.33,-327.281 1190.67,-327.281 1055.86,-308.375 1055.86,-281.637 1190.67,-262.731 1381.33,-262.731 1516.14,-281.637"/>
<polygon fill="none" stroke="black" points="1520.14,-278.143 1520.14,-311.869 1381.61,-331.297 1190.39,-331.297 1051.86,-311.869 1051.86,-278.143 1190.39,-258.715 1381.61,-258.715 1520.14,-278.143"/>
<text text-anchor="middle" x="1286" y="-297.806" font-family="Times,serif" font-size="14.00">MAVLinkHS.Messages.MAVLinkMessage</text>
<text text-anchor="middle" x="1286" y="-283.806" font-family="Times,serif" font-size="14.00">crcExtra</text>
</g>
<!-- 14&#45;&gt;4 -->
<g id="edge14" class="edge"><title>14&#45;&gt;4</title>
<path fill="none" stroke="navy" d="M1225.89,-258.629C1204.08,-245.794 1180.2,-231.738 1161.37,-220.656"/>
</g>
<!-- 15 -->
<g id="node8" class="node"><title>15</title>
<polygon fill="khaki" stroke="black" points="1029.14,-281.637 1029.14,-308.375 894.329,-327.281 703.671,-327.281 568.855,-308.375 568.855,-281.637 703.671,-262.731 894.329,-262.731 1029.14,-281.637"/>
<polygon fill="none" stroke="black" points="1033.14,-278.143 1033.14,-311.869 894.607,-331.297 703.393,-331.297 564.858,-311.869 564.858,-278.143 703.393,-258.715 894.607,-258.715 1033.14,-278.143"/>
<text text-anchor="middle" x="799" y="-297.806" font-family="Times,serif" font-size="14.00">MAVLinkHS.Messages.MAVLinkMessage</text>
<text text-anchor="middle" x="799" y="-283.806" font-family="Times,serif" font-size="14.00">length</text>
</g>
<!-- 15&#45;&gt;9 -->
<g id="edge15" class="edge"><title>15&#45;&gt;9</title>
<path fill="none" stroke="navy" d="M858.733,-258.629C880.93,-245.483 905.287,-231.057 924.199,-219.856"/>
</g>
<!-- 2&#45;&gt;1 -->
<g id="edge1" class="edge"><title>2&#45;&gt;1</title>
<path fill="none" stroke="magenta" d="M574.055,-90.3987C570.992,-89.5837 567.958,-88.7795 565,-88 518.65,-75.7844 466.344,-62.3312 426.037,-52.0356"/>
<polygon fill="magenta" stroke="magenta" points="416.322,-49.5558 427.124,-47.6688 421.167,-50.7924 426.011,-52.029 426.011,-52.029 426.011,-52.029 421.167,-50.7924 424.898,-56.3892 416.322,-49.5558 416.322,-49.5558"/>
</g>
<!-- 3&#45;&gt;1 -->
<g id="edge2" class="edge"><title>3&#45;&gt;1</title>
<path fill="none" stroke="magenta" d="M464.752,-87.8761C445.939,-78.4693 422.415,-66.7077 402.334,-56.6672"/>
<polygon fill="magenta" stroke="magenta" points="393.38,-52.1898 404.336,-52.637 397.852,-54.4258 402.324,-56.6619 402.324,-56.6619 402.324,-56.6619 397.852,-54.4258 400.311,-60.6869 393.38,-52.1898 393.38,-52.1898"/>
</g>
<!-- 5&#45;&gt;1 -->
<g id="edge3" class="edge"><title>5&#45;&gt;1</title>
<path fill="none" stroke="magenta" d="M359,-87.6966C359,-79.9827 359,-70.7125 359,-62.1124"/>
<polygon fill="magenta" stroke="magenta" points="359,-52.1043 363.5,-62.1043 359,-57.1043 359,-62.1043 359,-62.1043 359,-62.1043 359,-57.1043 354.5,-62.1044 359,-52.1043 359,-52.1043"/>
</g>
<!-- 11&#45;&gt;1 -->
<g id="edge11" class="edge"><title>11&#45;&gt;1</title>
<path fill="none" stroke="magenta" d="M247.96,-87.8761C267.877,-78.3917 292.822,-66.5134 314.02,-56.419"/>
<polygon fill="magenta" stroke="magenta" points="323.157,-52.0683 316.063,-60.4306 318.642,-54.218 314.128,-56.3677 314.128,-56.3677 314.128,-56.3677 318.642,-54.218 312.193,-52.3048 323.157,-52.0683 323.157,-52.0683"/>
</g>
<!-- 12&#45;&gt;1 -->
<g id="edge12" class="edge"><title>12&#45;&gt;1</title>
<path fill="none" stroke="magenta" d="M130.049,-90.6341C133.07,-89.716 136.076,-88.8288 139,-88 189.847,-73.5885 248.003,-59.6882 291.748,-49.7412"/>
<polygon fill="magenta" stroke="magenta" points="301.697,-47.4903 292.937,-54.086 296.82,-48.5936 291.944,-49.6969 291.944,-49.6969 291.944,-49.6969 296.82,-48.5936 290.951,-45.3078 301.697,-47.4903 301.697,-47.4903"/>
</g>
<!-- 13&#45;&gt;1 -->
<g id="edge13" class="edge"><title>13&#45;&gt;1</title>
<path fill="none" stroke="magenta" d="M699.118,-89.9432C696.381,-89.2533 693.661,-88.5999 691,-88 600.282,-67.5508 493.891,-52.0268 426.472,-43.218"/>
<polygon fill="magenta" stroke="magenta" points="416.404,-41.9147 426.9,-38.7359 421.363,-42.5567 426.322,-43.1986 426.322,-43.1986 426.322,-43.1986 421.363,-42.5567 425.744,-47.6614 416.404,-41.9147 416.404,-41.9147"/>
</g>
<!-- 7 -->
<g id="node16" class="node"><title>7</title>
<polygon fill="gold" stroke="black" stroke-width="2" points="1677.65,-313.006 1538.35,-313.006 1538.35,-277.006 1677.65,-277.006 1677.65,-313.006"/>
<text text-anchor="middle" x="1608" y="-290.806" font-family="Times,serif" font-size="14.00">heartBeatCRC</text>
</g>
<!-- 8 -->
<g id="node17" class="node"><title>8</title>
<polygon fill="gold" stroke="black" stroke-width="2" points="1829.9,-313.006 1696.1,-313.006 1696.1,-277.006 1829.9,-277.006 1829.9,-313.006"/>
<text text-anchor="middle" x="1763" y="-290.806" font-family="Times,serif" font-size="14.00">heartBeatLen</text>
</g>
</g>
</svg>
