<?xml version="1.0" encoding="UTF-8" standalone="no"?>
<!DOCTYPE svg PUBLIC "-//W3C//DTD SVG 1.1//EN"
 "http://www.w3.org/Graphics/SVG/1.1/DTD/svg11.dtd">
<!-- Generated by graphviz version 2.38.0 (20140413.2041)
 -->
<!-- Title: Levels within MAVLinkHS.Messages.MAVLinkMessage Pages: 1 -->
<svg width="358pt" height="113pt"
 viewBox="0.00 0.00 358.00 112.86" xmlns="http://www.w3.org/2000/svg" xmlns:xlink="http://www.w3.org/1999/xlink">
<g id="graph0" class="graph" transform="scale(1 1) rotate(0) translate(4 108.861)">
<title>Levels within MAVLinkHS.Messages.MAVLinkMessage</title>
<polygon fill="white" stroke="none" points="-4,4 -4,-108.861 354,-108.861 354,4 -4,4"/>
<g id="clust1" class="cluster"><title>cluster_0</title>
<polygon fill="lavender" stroke="black" points="8,-8 8,-96.8605 342,-96.8605 342,-8 8,-8"/>
<text text-anchor="middle" x="175" y="-81.6605" font-family="Times,serif" font-size="14.00">Exported root entities</text>
</g>
<!-- 1 -->
<g id="node1" class="node"><title>1</title>
<polygon fill="gold" stroke="black" stroke-width="2" points="329.735,-32.5778 329.735,-50.2827 239.093,-62.8019 110.907,-62.8019 20.2648,-50.2827 20.2648,-32.5778 110.907,-20.0586 239.093,-20.0586 329.735,-32.5778"/>
<polygon fill="none" stroke="black" stroke-width="2" points="333.738,-29.1035 333.738,-53.757 239.37,-66.791 110.63,-66.791 16.2618,-53.757 16.2618,-29.1035 110.63,-16.0695 239.37,-16.0695 333.738,-29.1035"/>
<text text-anchor="middle" x="175" y="-37.2303" font-family="Times,serif" font-size="14.00">Class: MAVLinkMessage</text>
</g>
</g>
</svg>
