<?xml version="1.0" encoding="UTF-8" standalone="no"?>
<!DOCTYPE svg PUBLIC "-//W3C//DTD SVG 1.1//EN"
 "http://www.w3.org/Graphics/SVG/1.1/DTD/svg11.dtd">
<!-- Generated by graphviz version 2.38.0 (20140413.2041)
 -->
<!-- Title: Diagram of: MAVLinkHS.CRC Pages: 1 -->
<svg width="394pt" height="260pt"
 viewBox="0.00 0.00 394.08 260.00" xmlns="http://www.w3.org/2000/svg" xmlns:xlink="http://www.w3.org/1999/xlink">
<g id="graph0" class="graph" transform="scale(1 1) rotate(0) translate(4 256)">
<title>Diagram of: MAVLinkHS.CRC</title>
<polygon fill="white" stroke="none" points="-4,4 -4,-256 390.083,-256 390.083,4 -4,4"/>
<!-- 1 -->
<g id="node1" class="node"><title>1</title>
<polygon fill="bisque" stroke="black" stroke-width="2" points="142.587,-108 0.13743,-108 0.13743,-72 142.587,-72 142.587,-108"/>
<text text-anchor="middle" x="71.3623" y="-85.8" font-family="Times,serif" font-size="14.00">crcAccumulate</text>
</g>
<!-- 7 -->
<g id="node7" class="node"><title>7</title>
<polygon fill="cyan" stroke="black" stroke-width="2" points="124.514,-36 18.2104,-36 18.2104,-0 124.514,-0 124.514,-36"/>
<text text-anchor="middle" x="71.3623" y="-13.8" font-family="Times,serif" font-size="14.00">toWord8</text>
</g>
<!-- 1&#45;&gt;7 -->
<g id="edge1" class="edge"><title>1&#45;&gt;7</title>
<path fill="none" stroke="chartreuse" d="M71.3623,-71.6966C71.3623,-63.9827 71.3623,-54.7125 71.3623,-46.1124"/>
<polygon fill="chartreuse" stroke="chartreuse" points="74.8624,-46.1043 71.3623,-36.1043 67.8624,-46.1044 74.8624,-46.1043"/>
</g>
<!-- 2 -->
<g id="node2" class="node"><title>2</title>
<polygon fill="goldenrod" stroke="black" stroke-width="2" points="209.314,-180 81.4101,-180 81.4101,-144 209.314,-144 209.314,-180"/>
<text text-anchor="middle" x="145.362" y="-157.8" font-family="Times,serif" font-size="14.00">crcCalculate</text>
</g>
<!-- 2&#45;&gt;1 -->
<g id="edge2" class="edge"><title>2&#45;&gt;1</title>
<path fill="none" stroke="black" d="M127.07,-143.697C117.93,-135.05 106.722,-124.449 96.7623,-115.027"/>
<polygon fill="black" stroke="black" points="99.114,-112.434 89.444,-108.104 94.3035,-117.519 99.114,-112.434"/>
</g>
<!-- 6 -->
<g id="node6" class="node"><title>6</title>
<polygon fill="bisque" stroke="black" stroke-width="2" points="279.525,-108 161.2,-108 161.2,-72 279.525,-72 279.525,-108"/>
<text text-anchor="middle" x="220.362" y="-85.8" font-family="Times,serif" font-size="14.00">swapBytes</text>
</g>
<!-- 2&#45;&gt;6 -->
<g id="edge3" class="edge"><title>2&#45;&gt;6</title>
<path fill="none" stroke="black" d="M163.902,-143.697C173.166,-135.05 184.525,-124.449 194.619,-115.027"/>
<polygon fill="black" stroke="black" points="197.114,-117.486 202.036,-108.104 192.338,-112.369 197.114,-117.486"/>
</g>
<!-- 3 -->
<g id="node3" class="node"><title>3</title>
<polygon fill="gold" stroke="black" stroke-width="2" points="224.632,-252 66.0925,-252 66.0925,-216 224.632,-216 224.632,-252"/>
<text text-anchor="middle" x="145.362" y="-229.8" font-family="Times,serif" font-size="14.00">crcCalculateExtra</text>
</g>
<!-- 3&#45;&gt;2 -->
<g id="edge4" class="edge"><title>3&#45;&gt;2</title>
<path fill="none" stroke="chartreuse" d="M145.362,-215.697C145.362,-207.983 145.362,-198.712 145.362,-190.112"/>
<polygon fill="chartreuse" stroke="chartreuse" points="148.862,-190.104 145.362,-180.104 141.862,-190.104 148.862,-190.104"/>
</g>
<!-- 4 -->
<g id="node4" class="node"><title>4</title>
<polygon fill="cyan" stroke="black" stroke-width="2" points="263.194,-36 153.531,-36 153.531,-0 263.194,-0 263.194,-36"/>
<text text-anchor="middle" x="208.362" y="-13.8" font-family="Times,serif" font-size="14.00">highByte</text>
</g>
<!-- 5 -->
<g id="node5" class="node"><title>5</title>
<polygon fill="cyan" stroke="black" stroke-width="2" points="386.305,-36 280.42,-36 280.42,-0 386.305,-0 386.305,-36"/>
<text text-anchor="middle" x="333.362" y="-13.8" font-family="Times,serif" font-size="14.00">lowByte</text>
</g>
<!-- 6&#45;&gt;4 -->
<g id="edge5" class="edge"><title>6&#45;&gt;4</title>
<path fill="none" stroke="black" d="M217.396,-71.6966C216.074,-63.9827 214.484,-54.7125 213.01,-46.1124"/>
<polygon fill="black" stroke="black" points="216.434,-45.3692 211.294,-36.1043 209.535,-46.552 216.434,-45.3692"/>
</g>
<!-- 6&#45;&gt;5 -->
<g id="edge6" class="edge"><title>6&#45;&gt;5</title>
<path fill="none" stroke="black" d="M248.005,-71.8761C262.78,-62.7236 281.153,-51.3417 297.065,-41.485"/>
<polygon fill="black" stroke="black" points="298.955,-44.4313 305.613,-36.1898 295.269,-38.4806 298.955,-44.4313"/>
</g>
</g>
</svg>
